<?xml version="1.0" standalone="no"?>
<!DOCTYPE svg PUBLIC "-//W3C//DTD SVG 20010904//EN"
 "http://www.w3.org/TR/2001/REC-SVG-20010904/DTD/svg10.dtd">
<svg version="1.0" xmlns="http://www.w3.org/2000/svg"
 width="2380.000000pt" height="2093.000000pt" viewBox="0 0 2380.000000 2093.000000"
 preserveAspectRatio="xMidYMid meet">

<g transform="translate(0.000000,2093.000000) scale(0.100000,-0.100000)"
fill="#000000" stroke="none">
<path d="M5535 18060 c4 -6 -18 -10 -64 -10 -41 0 -71 -4 -71 -10 0 -6 -27
-10 -60 -10 -33 0 -60 -4 -60 -10 0 -5 -16 -10 -35 -10 -19 0 -35 -4 -35 -10
0 -5 -18 -10 -40 -10 -22 0 -40 -4 -40 -9 0 -5 -26 -13 -57 -17 -33 -4 -65
-14 -77 -25 -11 -11 -28 -19 -38 -19 -10 0 -18 -5 -18 -11 0 -7 -10 -9 -24 -7
-15 3 -27 0 -30 -8 -3 -8 -19 -14 -36 -14 -16 0 -30 -5 -30 -11 0 -5 -5 -7
-11 -4 -6 4 -13 -3 -16 -14 -4 -16 -11 -20 -24 -16 -11 4 -19 2 -19 -4 0 -6
-11 -11 -25 -11 -15 0 -24 -5 -22 -12 1 -8 -6 -12 -17 -10 -12 2 -16 -1 -10
-9 5 -9 2 -10 -9 -6 -10 3 -17 2 -17 -3 0 -6 -7 -10 -15 -10 -8 0 -15 -6 -15
-12 0 -9 -4 -8 -10 2 -6 10 -10 11 -10 3 0 -7 -9 -13 -21 -13 -25 0 -54 -26
-39 -35 5 -3 10 -12 9 -18 0 -9 -2 -9 -6 1 -6 15 -43 16 -43 1 0 -5 -4 -7 -10
-4 -5 3 -10 -1 -10 -9 0 -10 -9 -16 -25 -16 -20 0 -25 -5 -25 -25 0 -14 6 -25
13 -25 6 0 3 -6 -8 -12 -11 -6 -22 -14 -25 -17 -10 -12 -50 -31 -65 -31 -22 0
-55 -20 -86 -52 -15 -16 -31 -28 -37 -28 -8 0 -22 -22 -22 -36 0 -9 39 -3 42
6 2 5 17 11 33 12 17 1 37 9 45 18 21 21 57 40 75 40 8 0 15 5 15 10 0 6 9 10
21 10 11 0 17 5 14 10 -3 6 3 10 14 10 14 0 21 6 21 19 0 15 10 20 50 26 28 4
50 11 50 16 0 5 9 9 20 9 11 0 20 5 20 10 0 6 7 10 15 10 8 0 15 6 15 13 0 8
4 7 10 -3 6 -10 10 -11 10 -2 0 6 11 12 25 12 14 0 25 5 25 10 0 6 11 10 25
10 14 0 25 5 25 10 0 6 11 10 24 10 13 0 26 4 28 9 5 15 81 18 86 3 2 -7 -5
-12 -17 -12 -12 0 -21 -4 -21 -10 0 -5 -7 -10 -15 -10 -8 0 -15 -4 -15 -10 0
-5 -9 -10 -21 -10 -11 0 -27 -7 -36 -15 -8 -8 -19 -13 -24 -10 -5 4 -9 1 -9
-4 0 -6 -11 -11 -25 -11 -14 0 -25 -4 -25 -9 0 -9 -48 -26 -62 -23 -5 1 -8 -3
-8 -8 0 -5 -6 -10 -13 -10 -7 0 -19 -9 -27 -20 -8 -11 -25 -20 -37 -20 -14 0
-23 -6 -23 -16 0 -8 -4 -12 -10 -9 -5 3 -10 1 -10 -4 0 -6 -7 -11 -15 -11 -8
0 -15 -4 -15 -10 0 -5 -7 -10 -15 -10 -8 0 -15 -4 -15 -10 0 -5 -9 -10 -20
-10 -11 0 -20 -4 -20 -10 0 -5 -7 -10 -15 -10 -8 0 -15 -5 -15 -11 0 -12 -25
-39 -37 -39 -5 0 -15 -9 -22 -19 -8 -11 -20 -17 -28 -14 -7 3 -13 0 -13 -6 0
-14 -45 -61 -58 -61 -6 0 -12 -7 -16 -15 -3 -8 -13 -15 -21 -15 -19 0 -45 -23
-45 -39 0 -6 -7 -11 -15 -11 -8 0 -25 -11 -39 -25 -14 -14 -28 -25 -31 -25 -4
0 -13 -7 -21 -15 -10 -9 -11 -15 -4 -15 7 0 6 -6 -4 -15 -8 -8 -19 -15 -25
-15 -5 0 -21 -11 -35 -25 -14 -14 -30 -25 -36 -25 -5 0 -10 -9 -10 -20 0 -11
-4 -20 -10 -20 -5 0 -10 -9 -10 -20 0 -11 -7 -20 -15 -20 -8 0 -15 -9 -15 -20
0 -11 -4 -20 -10 -20 -5 0 -10 -7 -10 -15 0 -8 -6 -15 -14 -15 -9 0 -16 -12
-18 -27 -2 -23 -9 -29 -32 -31 -33 -4 -56 -23 -56 -46 0 -9 -6 -16 -13 -16
-13 0 -42 -47 -39 -62 1 -5 -5 -8 -13 -8 -8 0 -15 -9 -15 -20 0 -11 -4 -20
-10 -20 -5 0 -10 -22 -10 -50 0 -27 -4 -50 -10 -50 -6 0 -10 -32 -10 -75 0
-60 -3 -75 -15 -75 -13 0 -20 -18 -16 -42 0 -5 -3 -8 -9 -8 -6 0 -10 -45 -10
-115 0 -96 -3 -115 -15 -115 -10 0 -15 -10 -15 -30 0 -20 5 -30 15 -30 8 0 15
-8 15 -17 1 -16 2 -16 13 -3 15 18 57 26 57 10 0 -14 -25 -40 -39 -40 -16 0
-13 -17 4 -24 11 -4 15 -20 15 -55 0 -27 5 -53 10 -56 6 -3 10 -26 10 -51 0
-24 5 -44 10 -44 6 0 10 -35 10 -85 0 -50 -4 -85 -10 -85 -7 0 -10 -158 -10
-455 0 -297 3 -455 10 -455 6 0 10 -45 10 -115 0 -94 3 -117 15 -121 13 -5 15
-39 15 -215 0 -179 -2 -209 -15 -209 -12 0 -15 -15 -15 -75 0 -43 -4 -75 -10
-75 -5 0 -10 -25 -10 -55 0 -30 -4 -55 -10 -55 -5 0 -10 -18 -10 -40 0 -29 -4
-40 -15 -40 -11 0 -15 -12 -15 -50 0 -27 -4 -50 -10 -50 -5 0 -10 -16 -10 -35
0 -24 -5 -35 -15 -35 -10 0 -15 -10 -15 -30 0 -16 -4 -30 -10 -30 -5 0 -10
-11 -10 -25 0 -16 -6 -25 -15 -25 -8 0 -15 -9 -15 -20 0 -11 -4 -20 -10 -20
-5 0 -10 -8 -10 -18 0 -9 -11 -26 -25 -36 -14 -10 -25 -25 -25 -32 0 -8 -4
-14 -10 -14 -5 0 -10 -7 -10 -15 0 -8 -6 -15 -12 -15 -7 0 -24 -14 -37 -31
-32 -41 -78 -89 -84 -89 -12 0 -107 -101 -107 -115 0 -8 -6 -15 -14 -15 -8 0
-20 -13 -28 -30 -11 -26 -18 -30 -50 -30 -21 0 -38 -4 -38 -9 0 -5 -42 -12
-92 -16 -51 -4 -95 -11 -98 -16 -3 -4 -38 -9 -78 -10 -40 -1 -72 -6 -72 -10 0
-5 -13 -9 -30 -9 -16 0 -30 -4 -30 -10 0 -5 -7 -10 -15 -10 -10 0 -15 -10 -15
-30 0 -20 -5 -30 -15 -30 -13 0 -21 -31 -16 -62 0 -5 -6 -8 -15 -8 -9 0 -12
-5 -8 -12 4 -6 3 -8 -4 -5 -17 11 -42 -4 -42 -24 0 -10 -4 -19 -10 -19 -5 0
-10 -9 -10 -20 0 -11 -6 -20 -12 -20 -9 0 -8 -4 2 -10 13 -8 12 -10 -2 -10
-11 0 -18 -8 -18 -21 0 -22 -22 -49 -39 -49 -6 0 -11 -8 -11 -18 0 -10 -9 -24
-20 -32 -14 -10 -16 -16 -7 -22 9 -6 9 -8 0 -8 -8 0 -13 -13 -13 -30 0 -31
-17 -39 -38 -18 -9 9 -12 7 -12 -13 0 -13 -11 -37 -25 -52 -15 -16 -20 -27
-13 -27 10 0 10 -2 -1 -9 -11 -7 -11 -9 0 -14 10 -4 10 -6 2 -6 -7 -1 -13 -12
-13 -25 0 -14 -5 -28 -12 -32 -7 -5 -8 -3 -3 6 5 9 4 11 -3 6 -7 -4 -12 -22
-12 -39 0 -24 -3 -28 -10 -17 -8 12 -10 11 -10 -7 0 -13 -5 -23 -11 -23 -5 0
-8 -4 -5 -8 3 -5 -4 -15 -15 -22 -11 -9 -19 -26 -19 -43 0 -16 -4 -26 -10 -22
-5 3 -10 -3 -10 -14 0 -12 -7 -21 -15 -21 -9 0 -15 -10 -15 -26 0 -14 -4 -23
-9 -20 -5 3 -9 -6 -10 -19 -3 -47 -4 -55 -12 -55 -4 0 -10 6 -12 13 -3 6 -6
-5 -6 -25 -1 -21 -5 -38 -11 -38 -5 0 -10 -9 -10 -20 0 -11 -4 -20 -10 -20 -5
0 -10 -13 -10 -30 0 -20 -5 -30 -15 -30 -9 0 -15 -10 -15 -26 0 -14 -4 -23
-10 -19 -6 4 -10 -6 -10 -24 0 -23 -4 -29 -15 -25 -11 5 -15 -1 -15 -19 0 -14
-5 -27 -10 -29 -6 -2 -12 -13 -13 -26 -1 -25 -7 -27 -26 -9 -11 10 -13 10 -7
0 4 -7 2 -13 -3 -13 -6 0 -11 -11 -11 -25 0 -14 -4 -25 -10 -25 -5 0 -10 -13
-10 -30 0 -20 -5 -30 -15 -30 -11 0 -15 -11 -15 -40 0 -22 -4 -40 -10 -40 -5
0 -10 -16 -10 -35 0 -24 -5 -35 -15 -35 -8 0 -15 -9 -15 -20 0 -11 -4 -20 -10
-20 -5 0 -10 -9 -10 -20 0 -11 -7 -20 -15 -20 -12 0 -15 -13 -15 -60 0 -33 -4
-60 -10 -60 -5 0 -10 -13 -10 -30 0 -16 -4 -30 -10 -30 -5 0 -10 -18 -10 -40
0 -29 -4 -40 -15 -40 -10 0 -15 -11 -15 -35 0 -19 -4 -35 -10 -35 -5 0 -10
-15 -10 -34 0 -19 -5 -36 -11 -38 -13 -4 -39 -74 -39 -105 0 -13 -4 -23 -10
-23 -5 0 -10 -11 -10 -25 0 -16 -6 -25 -15 -25 -10 0 -15 -10 -15 -30 0 -16
-4 -30 -10 -30 -5 0 -10 -11 -10 -25 0 -18 -4 -23 -15 -19 -11 5 -15 -1 -15
-25 0 -17 -4 -31 -10 -31 -5 0 -10 -7 -10 -15 0 -8 -7 -15 -15 -15 -10 0 -15
-10 -15 -30 0 -16 -4 -30 -10 -30 -5 0 -10 -9 -10 -20 0 -11 -4 -20 -10 -20
-5 0 -10 -9 -10 -20 0 -11 -7 -20 -15 -20 -8 0 -15 -7 -15 -15 0 -8 -4 -15
-10 -15 -5 0 -10 -9 -10 -20 0 -11 -7 -20 -15 -20 -8 0 -15 -9 -15 -20 0 -11
-4 -20 -10 -20 -5 0 -10 -9 -10 -20 0 -11 -7 -20 -15 -20 -13 0 -20 -18 -16
-42 0 -5 -3 -8 -9 -8 -5 0 -10 -7 -10 -15 0 -8 -4 -15 -10 -15 -5 0 -10 -11
-10 -25 0 -16 -6 -25 -15 -25 -8 0 -15 -9 -15 -20 0 -11 -4 -20 -10 -20 -5 0
-10 -7 -10 -15 0 -8 -7 -15 -15 -15 -13 0 -21 -25 -16 -52 0 -5 -3 -8 -9 -8
-5 0 -10 -9 -10 -20 0 -11 -7 -20 -15 -20 -10 0 -15 -10 -15 -30 0 -16 -4 -30
-10 -30 -5 0 -10 -11 -10 -25 0 -20 -5 -25 -24 -25 -22 0 -23 -4 -25 -57 0
-32 -6 -59 -11 -61 -6 -2 -10 -15 -10 -28 0 -15 -6 -24 -15 -24 -10 0 -15 -10
-15 -29 0 -17 -5 -33 -10 -36 -6 -3 -10 -17 -10 -31 0 -13 -4 -24 -10 -24 -5
0 -10 -7 -10 -15 0 -8 -7 -15 -15 -15 -10 0 -15 -10 -15 -30 0 -16 -4 -30 -10
-30 -5 0 -10 -9 -10 -20 0 -11 -7 -20 -15 -20 -10 0 -15 -11 -15 -35 0 -19 -4
-35 -10 -35 -5 0 -10 -7 -10 -15 0 -9 -7 -18 -15 -21 -9 -4 -15 -19 -15 -38 0
-24 -3 -27 -10 -16 -7 11 -10 7 -10 -17 0 -18 -4 -33 -10 -33 -5 0 -10 -11
-10 -25 0 -16 -6 -25 -15 -25 -8 0 -15 -9 -15 -20 0 -11 -4 -20 -10 -20 -5 0
-10 -13 -10 -30 0 -20 -5 -30 -15 -30 -8 0 -15 -9 -15 -20 0 -11 -4 -20 -10
-20 -5 0 -10 -11 -10 -25 0 -20 -5 -25 -26 -25 -14 0 -23 -4 -19 -10 3 -5 -1
-10 -9 -10 -13 0 -16 -12 -16 -55 0 -55 -6 -65 -27 -44 -7 7 -9 3 -6 -14 3
-14 0 -28 -6 -31 -6 -4 -11 -16 -11 -27 0 -10 -6 -19 -13 -19 -7 0 -19 -9 -27
-20 -8 -11 -18 -20 -23 -20 -12 0 -57 -47 -57 -60 0 -5 -6 -10 -13 -10 -7 0
-19 -9 -27 -20 -8 -11 -18 -20 -23 -20 -16 0 -67 -61 -67 -80 0 -11 -4 -20
-10 -20 -6 0 -10 -38 -10 -95 0 -57 -4 -95 -10 -95 -5 0 -10 -25 -10 -55 0
-30 5 -55 10 -55 6 0 10 -31 10 -74 0 -41 4 -76 10 -78 5 -1 10 -20 12 -41 1
-26 6 -36 15 -33 10 4 13 -14 13 -79 0 -50 4 -85 10 -85 6 0 10 -9 10 -20 0
-11 7 -20 15 -20 8 0 15 -9 15 -20 0 -11 5 -20 10 -20 6 0 10 -9 10 -19 0 -10
7 -21 15 -25 11 -4 15 -22 15 -76 0 -40 4 -70 10 -70 6 0 10 -35 10 -85 0 -50
4 -85 10 -85 6 0 10 -28 10 -65 0 -51 3 -65 15 -65 12 0 15 -15 15 -75 0 -43
4 -75 10 -75 6 0 10 -22 10 -50 0 -38 4 -50 15 -50 10 0 15 -10 15 -30 0 -16
5 -30 10 -30 6 0 10 -7 10 -15 0 -8 7 -15 15 -15 10 0 15 -10 15 -30 0 -16 5
-30 10 -30 6 0 10 -9 10 -20 0 -11 5 -20 10 -20 6 0 10 -9 10 -20 0 -11 7 -20
15 -20 8 0 15 -7 15 -15 0 -8 5 -15 10 -15 6 0 10 -9 10 -20 0 -11 7 -20 15
-20 8 0 15 -9 15 -20 0 -11 5 -20 10 -20 6 0 10 -9 10 -20 0 -11 7 -20 15 -20
11 0 15 -12 15 -45 0 -25 5 -45 10 -45 6 0 10 -18 10 -40 0 -22 5 -40 10 -40
6 0 10 -9 10 -20 0 -11 7 -20 15 -20 8 0 15 -7 15 -15 0 -8 5 -15 10 -15 6 0
10 -12 10 -26 0 -26 -20 -54 -39 -54 -6 0 -11 -13 -11 -30 0 -27 4 -30 40 -36
25 -4 40 -12 40 -21 0 -17 24 -43 39 -43 7 0 11 -23 11 -55 0 -42 -3 -55 -15
-55 -10 0 -15 -10 -15 -30 0 -16 5 -30 11 -30 16 0 39 -26 39 -44 0 -9 5 -16
10 -16 6 0 10 -9 10 -20 0 -11 7 -20 15 -20 8 0 15 -7 15 -15 0 -8 5 -15 10
-15 6 0 10 -9 10 -20 0 -11 5 -20 11 -20 16 0 39 -26 39 -44 0 -9 5 -16 10
-16 6 0 10 -9 10 -20 0 -11 7 -20 15 -20 8 0 15 -5 15 -11 0 -14 25 -39 39
-39 6 0 11 -9 11 -20 0 -11 5 -20 10 -20 6 0 10 -9 10 -20 0 -11 7 -20 15 -20
8 0 15 -8 15 -18 0 -10 9 -24 20 -32 11 -8 20 -20 20 -27 0 -7 6 -13 13 -13 7
0 19 -9 27 -20 8 -11 20 -20 27 -20 7 0 13 -4 13 -9 0 -4 38 -9 85 -10 54 -1
85 2 85 8 0 6 16 11 35 11 19 0 35 5 35 10 0 6 21 10 46 10 29 0 51 6 62 17
12 12 13 18 4 21 -6 2 -12 10 -12 18 0 8 -5 14 -11 14 -16 0 -39 26 -39 44 0
9 -5 16 -10 16 -17 0 -60 47 -60 65 0 8 -7 15 -15 15 -8 0 -15 7 -15 15 0 8
-4 15 -10 15 -5 0 -10 6 -10 14 0 8 -5 18 -12 22 -7 4 -8 3 -4 -4 4 -7 2 -12
-3 -12 -6 0 -11 14 -11 30 0 17 -4 30 -10 30 -5 0 -10 9 -10 20 0 11 5 20 10
20 6 0 10 -9 10 -20 0 -11 6 -20 14 -20 8 0 16 -6 19 -12 2 -7 8 -9 13 -5 4 4
4 15 -2 24 -8 12 -7 25 3 45 16 31 26 38 16 10 -3 -9 -2 -13 3 -9 8 8 21 83
30 190 3 31 10 55 15 51 8 -4 14 17 10 39 -2 12 17 8 22 -5 3 -8 6 -5 6 5 1
21 24 47 40 47 6 0 11 9 11 20 0 13 9 22 25 26 14 3 22 11 18 17 -4 6 0 8 10
4 9 -3 23 0 31 8 8 8 18 15 23 15 5 0 15 9 23 20 8 11 24 20 35 20 11 0 27 9
35 20 8 11 25 20 37 20 13 0 23 5 23 10 0 6 21 10 46 10 27 0 43 4 39 10 -4 6
28 10 89 10 57 0 96 -4 96 -10 0 -6 48 -10 125 -10 77 0 125 4 125 10 0 6 29
10 68 10 56 0 70 -3 82 -20 8 -11 23 -20 33 -20 10 0 25 -7 33 -15 8 -8 21
-12 29 -9 8 4 15 1 15 -5 0 -6 10 -11 23 -11 12 0 29 -9 37 -20 9 -13 26 -20
47 -20 18 0 33 -4 33 -10 0 -5 11 -10 25 -10 14 0 25 -4 25 -9 0 -4 16 -11 35
-14 22 -4 47 -18 64 -36 16 -17 38 -31 50 -31 14 0 21 -6 21 -20 0 -11 7 -20
15 -20 8 0 15 -7 15 -16 0 -8 5 -12 10 -9 6 3 10 -3 10 -14 0 -12 7 -21 15
-21 8 0 15 -7 15 -15 0 -8 5 -15 10 -15 6 0 10 -9 10 -20 0 -11 5 -20 10 -20
6 0 10 -9 10 -20 0 -11 5 -20 11 -20 15 0 39 -26 39 -43 0 -8 11 -18 25 -21
14 -4 25 -13 25 -22 0 -15 23 -44 35 -44 10 0 35 -28 35 -39 0 -5 5 -13 12
-17 7 -5 8 -3 3 6 -5 9 -4 11 3 6 7 -4 12 -12 12 -17 0 -15 23 -35 48 -43 12
-4 22 -14 22 -22 0 -15 23 -44 35 -44 12 0 35 -29 35 -44 0 -9 7 -16 15 -16 8
0 15 -9 15 -20 0 -11 5 -20 10 -20 15 0 12 -39 -4 -56 -8 -8 -24 -14 -35 -14
-12 0 -21 -4 -21 -10 0 -6 -40 -10 -100 -10 -60 0 -100 4 -100 10 0 6 -9 10
-20 10 -11 0 -20 5 -20 10 0 6 -7 10 -15 10 -8 0 -15 4 -15 9 0 5 -10 13 -22
17 -13 4 -35 20 -49 35 -15 16 -32 29 -38 29 -6 0 -11 7 -11 16 0 15 -23 44
-35 44 -4 0 -13 7 -21 15 -10 9 -11 15 -4 15 7 0 6 6 -4 15 -8 8 -19 15 -24
15 -16 0 -52 37 -52 54 0 9 -6 16 -13 16 -7 0 -19 9 -27 20 -8 11 -19 20 -25
20 -6 0 -17 9 -25 20 -8 11 -20 20 -27 20 -7 0 -13 4 -13 9 0 5 -16 12 -35 15
-19 4 -35 11 -35 16 0 6 -10 10 -23 10 -12 0 -29 9 -37 20 -8 11 -20 20 -27
20 -7 0 -13 10 -13 23 0 18 -2 19 -10 7 -8 -13 -10 -12 -10 3 0 18 -22 47 -35
47 -4 0 -13 -7 -21 -15 -9 -8 -11 -15 -5 -15 6 0 11 -16 11 -35 0 -24 5 -35
15 -35 11 0 15 -12 15 -45 0 -25 5 -45 10 -45 6 0 10 5 10 10 0 6 16 10 35 10
19 0 35 -4 35 -10 0 -5 -4 -10 -10 -10 -5 0 -10 -9 -10 -20 0 -11 -7 -20 -15
-20 -8 0 -15 -9 -15 -20 0 -11 -4 -20 -10 -20 -5 0 -10 -9 -10 -20 0 -13 -9
-22 -25 -26 -14 -3 -25 -13 -25 -21 0 -17 -24 -43 -39 -43 -6 0 -11 -7 -11
-16 0 -15 -23 -44 -35 -44 -10 0 -55 -48 -55 -60 0 -5 -6 -10 -13 -10 -7 0
-19 -9 -27 -20 -8 -11 -20 -20 -27 -20 -7 0 -13 -8 -13 -18 0 -10 -9 -24 -20
-32 -11 -8 -20 -22 -20 -32 0 -10 -5 -18 -11 -18 -14 0 -39 -25 -39 -39 0 -6
-7 -11 -15 -11 -8 0 -15 -9 -15 -20 0 -11 -4 -20 -10 -20 -5 0 -10 -9 -10 -20
0 -11 -7 -20 -15 -20 -8 0 -15 -9 -15 -20 0 -11 -4 -20 -10 -20 -5 0 -10 -11
-10 -25 0 -14 -4 -25 -10 -25 -5 0 -10 -9 -10 -20 0 -11 -7 -20 -15 -20 -11 0
-15 -11 -15 -36 0 -21 -4 -33 -10 -29 -6 4 -10 -8 -10 -29 0 -25 -4 -36 -15
-36 -8 0 -15 -4 -15 -10 0 -5 -16 -10 -35 -10 -28 0 -35 -4 -35 -20 0 -11 -4
-20 -10 -20 -6 0 -10 -28 -10 -65 0 -52 -3 -65 -15 -65 -14 0 -15 -49 -14
-417 0 -301 4 -422 12 -432 9 -12 9 -13 0 -7 -9 5 -13 -1 -13 -18 0 -16 5 -25
12 -23 10 1 14 -32 16 -136 2 -86 6 -136 12 -132 6 4 10 -32 10 -94 0 -61 4
-101 10 -101 6 0 10 -27 10 -60 0 -47 3 -60 15 -60 12 0 15 -14 15 -65 0 -37
4 -65 10 -65 6 0 10 -20 10 -45 0 -33 4 -45 15 -45 11 0 15 -12 15 -49 0 -28
5 -53 10 -56 5 -3 10 -24 10 -46 0 -28 4 -39 15 -39 11 0 15 -12 15 -49 0 -27
4 -51 9 -53 6 -1 11 -22 12 -46 2 -23 7 -42 11 -42 4 0 8 -18 8 -39 0 -25 5
-41 15 -45 10 -3 15 -19 15 -46 0 -22 5 -40 10 -40 6 0 10 -28 11 -62 0 -35 3
-57 6 -50 8 21 23 3 23 -29 0 -16 5 -29 13 -29 8 0 7 -4 -3 -10 -10 -6 -11
-10 -2 -10 8 0 12 -17 12 -50 0 -38 4 -50 15 -50 10 0 15 -11 15 -35 0 -19 5
-35 10 -35 6 0 10 -27 10 -60 0 -33 4 -60 10 -60 6 0 10 -20 10 -45 0 -33 4
-45 15 -45 11 0 15 -12 15 -45 0 -25 5 -45 10 -45 6 0 10 -22 10 -50 0 -38 4
-50 15 -50 12 0 15 -13 15 -55 0 -30 5 -55 10 -55 6 0 10 -22 10 -50 0 -27 5
-50 10 -50 6 0 10 -25 10 -55 0 -42 3 -55 15 -55 11 0 15 -12 15 -50 0 -27 5
-50 10 -50 6 0 10 -24 10 -54 0 -39 4 -55 15 -60 11 -4 15 -21 15 -66 0 -33 4
-60 10 -60 6 0 10 -32 10 -75 0 -68 10 -95 23 -62 3 6 6 -18 6 -55 1 -38 5
-68 11 -68 6 0 10 -33 10 -80 0 -47 4 -80 10 -80 6 0 10 -32 10 -75 0 -60 3
-75 15 -75 12 0 15 -15 15 -75 0 -43 4 -75 10 -75 6 0 10 -65 10 -175 l0 -175
1130 0 1130 0 0 365 c0 237 4 365 10 365 6 0 10 85 10 235 0 217 1 235 18 235
14 0 15 2 2 10 -10 6 -11 10 -2 10 9 0 12 30 12 115 0 70 4 115 10 115 6 0 10
47 10 120 0 73 4 120 10 120 6 0 10 48 10 125 0 104 2 125 15 125 12 0 15 19
15 115 0 70 4 115 10 115 6 0 10 47 10 120 0 100 3 120 15 120 13 0 15 30 15
210 0 133 4 210 10 210 6 0 10 87 10 240 l0 240 280 0 280 0 0 -35 c0 -19 5
-35 10 -35 6 0 10 -16 10 -35 0 -24 5 -35 15 -35 11 0 15 -12 15 -50 0 -27 5
-50 10 -50 6 0 10 -18 10 -40 0 -31 3 -38 15 -34 12 5 15 -4 15 -45 0 -28 5
-51 10 -51 6 0 10 -20 10 -45 0 -25 5 -45 10 -45 6 0 10 -20 10 -45 0 -31 5
-47 15 -51 9 -4 15 -19 15 -40 0 -19 5 -34 10 -34 6 0 10 -22 10 -50 0 -38 4
-50 15 -50 11 0 15 -12 15 -45 0 -25 5 -45 10 -45 6 0 10 -22 10 -50 0 -38 4
-50 15 -50 10 0 15 -11 15 -35 0 -19 5 -35 10 -35 6 0 10 -18 10 -40 0 -22 5
-40 10 -40 6 0 10 -16 10 -35 0 -24 5 -35 15 -35 11 0 15 -12 15 -50 0 -27 5
-50 10 -50 6 0 10 -16 10 -35 0 -24 5 -35 15 -35 11 0 15 -11 15 -40 0 -22 5
-40 10 -40 6 0 10 -20 10 -45 0 -33 4 -45 15 -45 11 0 15 -11 15 -40 0 -22 5
-40 10 -40 6 0 10 -16 10 -35 0 -19 5 -35 10 -35 6 0 10 -18 10 -40 0 -29 4
-40 15 -40 10 0 15 -11 15 -35 0 -19 5 -35 10 -35 6 0 10 -18 10 -40 0 -29 4
-40 15 -40 11 0 15 -11 15 -40 0 -22 5 -40 10 -40 6 0 10 -16 10 -35 0 -19 5
-35 10 -35 6 0 10 -18 10 -40 0 -29 4 -40 15 -40 10 0 15 -10 15 -34 0 -19 5
-38 10 -41 6 -3 10 -22 10 -41 0 -24 5 -34 15 -34 11 0 15 -12 15 -45 0 -25 5
-45 10 -45 6 0 10 -18 10 -40 0 -29 4 -40 15 -40 11 0 15 -12 15 -45 0 -25 5
-45 10 -45 6 0 10 -18 10 -40 0 -22 5 -40 10 -40 6 0 10 -16 10 -35 0 -24 5
-35 15 -35 11 0 15 -12 15 -50 0 -27 5 -50 10 -50 6 0 10 -16 10 -35 0 -24 5
-35 15 -35 12 0 15 -13 15 -60 0 -33 4 -60 10 -60 6 0 10 -35 10 -85 0 -69 3
-85 15 -85 12 0 15 -16 15 -80 l0 -80 1135 0 1135 0 0 161 c0 89 4 158 9 155
5 -3 11 8 15 25 3 18 6 528 6 1135 l0 1104 56 0 c35 0 61 5 70 14 16 16 19 86
4 86 -5 0 -10 11 -10 25 0 14 -4 25 -10 25 -5 0 -10 9 -10 20 0 11 -7 20 -15
20 -11 0 -15 12 -15 50 0 28 -4 50 -10 50 -5 0 -10 7 -10 15 0 8 -7 15 -15 15
-8 0 -15 -4 -15 -10 0 -5 -16 -10 -35 -10 -19 0 -35 5 -35 10 0 6 5 10 10 10
6 0 10 18 10 40 0 29 4 40 15 40 10 0 15 10 15 28 1 25 29 78 31 56 1 -22 18
34 18 64 1 19 5 31 11 27 6 -4 10 15 10 49 0 43 3 56 15 56 12 0 15 14 15 65
0 49 -4 67 -15 71 -12 5 -15 31 -15 149 0 147 8 204 21 155 3 -14 6 38 6 114
-1 101 2 141 11 144 15 5 16 32 2 32 -6 0 -5 6 2 14 9 10 15 11 20 2 4 -6 8 6
8 26 0 22 5 37 10 35 6 -1 17 13 25 31 8 18 10 30 6 27 -13 -7 11 57 26 73 7
7 13 29 13 48 0 19 4 34 8 34 4 0 8 9 9 20 1 11 -2 20 -8 20 -5 0 -9 25 -9 55
0 52 -1 55 -25 55 -18 0 -25 5 -25 20 0 11 -3 20 -6 20 -9 0 -44 -41 -44 -52
0 -5 -4 -6 -10 -3 -5 3 -10 -3 -10 -14 0 -12 -7 -21 -15 -21 -8 0 -15 -9 -15
-21 0 -11 -4 -17 -10 -14 -5 3 -10 -1 -10 -9 0 -9 -7 -16 -15 -16 -12 0 -15
13 -15 55 0 42 3 55 15 55 11 0 15 12 15 50 0 28 5 50 10 50 6 0 10 35 11 83
0 45 3 76 6 70 8 -20 23 -15 23 7 0 11 -4 20 -10 20 -5 0 -10 5 -10 11 0 5 5
7 10 4 6 -3 10 -1 10 4 0 6 -7 11 -15 11 -10 0 -15 11 -15 35 0 19 -4 35 -10
35 -5 0 -10 21 -10 46 0 34 -3 45 -13 41 -10 -4 -14 5 -15 31 -1 20 -6 38 -12
40 -5 2 -10 19 -10 38 0 24 -5 34 -15 34 -9 0 -15 10 -15 26 0 14 -4 23 -10
19 -5 -3 -10 -2 -10 3 0 5 -12 14 -26 20 -14 7 -23 8 -19 2 4 -6 -6 -10 -24
-10 -17 0 -31 -4 -31 -10 0 -5 -10 -10 -23 -10 -12 0 -29 -9 -37 -20 -8 -11
-25 -20 -37 -20 -13 0 -23 -4 -23 -10 0 -5 -11 -10 -25 -10 -14 0 -25 -4 -25
-10 0 -5 -11 -10 -25 -10 -14 0 -25 -4 -25 -10 0 -5 -9 -10 -20 -10 -11 0 -20
-4 -20 -9 0 -5 -11 -12 -25 -15 -14 -4 -25 -11 -25 -16 0 -6 -10 -10 -23 -10
-12 0 -29 -9 -37 -20 -8 -11 -19 -20 -25 -20 -6 0 -17 -9 -25 -20 -8 -11 -19
-20 -25 -20 -6 0 -17 -9 -25 -20 -8 -11 -20 -20 -27 -20 -7 0 -13 -4 -13 -9 0
-5 -15 -12 -33 -15 -18 -3 -39 -15 -47 -26 -8 -11 -25 -20 -37 -20 -13 0 -23
-4 -23 -10 0 -5 -11 -10 -25 -10 -14 0 -25 -4 -25 -10 0 -6 -27 -10 -60 -10
-33 0 -60 4 -60 10 0 6 -7 10 -15 10 -8 0 -15 5 -15 10 0 6 -9 10 -20 10 -11
0 -20 5 -20 10 0 6 -7 10 -15 10 -9 0 -15 9 -15 25 0 16 6 25 15 25 8 0 15 9
15 20 0 11 5 20 10 20 6 0 10 7 10 16 0 16 23 44 36 44 3 0 14 8 23 19 9 10
26 21 39 25 12 4 22 12 22 17 0 5 5 9 11 9 6 0 24 14 39 30 15 17 31 30 34 30
11 0 66 57 66 69 0 6 11 11 25 11 16 0 25 6 25 16 0 8 5 12 10 9 6 -3 10 -1
10 5 0 13 25 40 37 40 5 0 15 9 23 20 8 11 20 20 27 20 7 0 13 5 13 10 0 6 9
10 20 10 12 0 32 11 46 25 14 14 36 25 49 25 14 0 25 5 25 10 0 6 6 10 13 10
7 0 19 9 27 20 8 11 25 20 37 20 13 0 23 5 23 10 0 6 11 10 25 10 14 0 25 5
25 10 0 6 11 10 25 10 14 0 25 5 25 10 0 6 9 10 20 10 11 0 20 5 20 10 0 6 11
10 24 10 13 0 26 5 28 10 2 6 47 13 101 17 53 3 97 10 97 15 0 4 16 8 35 8 19
0 35 -4 35 -9 0 -4 32 -11 72 -14 39 -3 74 -11 78 -17 4 -7 10 -11 14 -11 19
3 26 0 26 -13 0 -8 11 -17 25 -20 14 -4 25 -11 25 -16 0 -6 10 -10 21 -10 12
0 30 -10 40 -21 15 -18 21 -20 34 -9 12 10 15 10 15 -1 0 -9 3 -10 8 -4 4 6
17 15 28 22 20 11 21 10 18 -10 -2 -12 -2 -16 2 -9 3 6 13 12 21 12 12 0 13
-3 4 -14 -10 -12 -8 -13 8 -9 12 3 21 1 21 -6 0 -6 11 -11 25 -11 14 0 25 -4
25 -10 0 -5 11 -12 25 -16 14 -3 25 -10 25 -15 0 -5 9 -9 20 -9 24 0 70 -42
70 -65 0 -8 7 -15 15 -15 10 0 15 -10 15 -30 0 -16 5 -30 10 -30 6 0 10 -11
10 -25 0 -14 -4 -25 -10 -25 -5 0 -10 -18 -10 -40 0 -29 -4 -40 -15 -40 -9 0
-15 -9 -15 -25 0 -14 -4 -25 -10 -25 -5 0 -10 -13 -10 -30 0 -16 -4 -30 -10
-30 -5 0 -10 -13 -10 -30 0 -20 -5 -30 -15 -30 -9 0 -15 -9 -15 -25 0 -14 -4
-25 -10 -25 -5 0 -10 -9 -10 -20 0 -11 -7 -20 -15 -20 -11 0 -15 -12 -15 -50
0 -38 4 -50 15 -50 8 0 15 5 15 10 0 6 20 10 45 10 25 0 45 5 45 10 0 6 11 10
25 10 14 0 25 5 25 10 0 6 11 10 25 10 14 0 25 5 25 10 0 6 5 10 11 10 6 0 24
14 39 30 15 17 33 30 39 30 6 0 11 7 11 15 0 8 5 15 10 15 6 0 10 9 10 20 0
11 7 20 15 20 12 0 15 19 15 115 0 96 -3 115 -15 115 -9 0 -15 9 -15 25 0 14
-4 25 -10 25 -5 0 -10 9 -10 20 0 11 -7 20 -15 20 -8 0 -15 9 -15 20 0 11 6
20 13 20 8 0 7 4 -3 10 -13 9 -13 10 0 10 10 0 17 11 18 28 1 15 7 29 12 30 7
3 10 77 10 208 -1 122 -5 202 -11 199 -5 -4 -9 24 -9 64 0 56 -3 71 -15 71
-10 0 -15 10 -15 33 0 19 -8 42 -20 55 -11 12 -20 28 -20 37 0 9 -9 15 -25 15
-14 0 -25 4 -25 9 0 5 -11 12 -25 15 -14 4 -25 13 -25 21 0 9 -6 12 -15 9 -11
-5 -15 1 -15 25 0 36 18 41 40 11 8 -11 20 -20 27 -20 7 0 13 -9 13 -19 0 -17
18 -31 41 -31 5 0 9 7 9 16 0 11 -6 15 -18 12 -15 -4 -18 -1 -14 18 2 14 0 24
-7 24 -6 0 -11 9 -11 20 0 11 -5 20 -11 20 -7 0 -19 9 -28 19 -10 12 -33 20
-61 22 -25 2 -51 10 -58 17 -7 6 -20 12 -28 12 -8 0 -14 5 -14 10 0 6 23 10
50 10 28 0 50 -4 50 -10 0 -5 5 -10 10 -10 6 0 9 13 8 30 -1 16 -6 30 -10 30
-4 0 -8 9 -8 20 0 11 -4 20 -10 20 -5 0 -10 9 -10 20 0 11 -7 20 -15 20 -8 0
-15 7 -15 16 0 8 -4 12 -10 9 -5 -3 -10 1 -10 9 0 9 -7 16 -15 16 -10 0 -15
10 -15 31 0 17 -4 28 -10 24 -6 -4 -10 12 -10 39 0 34 -4 46 -15 46 -11 0 -15
12 -15 45 0 25 -4 45 -10 45 -5 0 -10 23 -10 50 0 28 -4 50 -10 50 -5 0 -10
13 -10 29 0 17 -5 33 -12 37 -7 5 -8 3 -3 -6 5 -9 4 -11 -3 -6 -7 4 -12 18
-12 32 0 13 -4 24 -10 24 -5 0 -10 16 -10 35 0 24 -5 35 -15 35 -8 0 -15 9
-15 20 0 11 -4 20 -10 20 -5 0 -10 14 -10 30 0 20 -5 30 -15 30 -10 0 -15 10
-15 30 0 17 -4 30 -10 30 -5 0 -10 16 -10 35 0 19 -4 35 -10 35 -5 0 -10 14
-10 30 0 20 -5 30 -15 30 -10 0 -15 11 -15 35 0 19 -4 35 -10 35 -5 0 -10 14
-10 30 0 20 -5 30 -15 30 -11 0 -15 11 -15 40 0 22 -4 40 -10 40 -5 0 -10 11
-10 25 0 14 -4 25 -10 25 -5 0 -10 18 -10 40 0 29 -4 40 -15 40 -10 0 -15 10
-15 30 0 17 -4 30 -10 30 -6 0 -10 50 -10 130 0 109 -2 130 -15 130 -12 0 -15
13 -15 55 0 30 -4 55 -10 55 -5 0 -10 9 -10 20 0 11 -7 20 -15 20 -10 0 -15
11 -15 35 0 19 -4 35 -10 35 -5 0 -10 14 -10 30 0 17 -4 30 -10 30 -6 0 -10
27 -10 60 0 47 -3 60 -15 60 -13 0 -15 29 -15 205 l0 205 200 0 c110 0 200 4
200 9 0 16 -71 536 -96 706 -63 424 -169 1015 -194 1081 -9 23 -14 24 -95 24
l-85 0 0 76 c0 47 4 73 10 69 7 -4 10 77 10 234 0 154 -4 241 -10 241 -6 0
-10 48 -10 125 0 104 -2 125 -15 125 -13 0 -15 22 -15 140 0 105 -3 140 -12
140 -8 0 -9 3 -3 8 14 10 17 32 5 32 -5 0 -10 7 -10 15 0 8 6 15 13 15 8 0 7
4 -3 10 -8 5 -10 10 -4 10 7 0 12 30 13 85 1 54 -2 85 -8 85 -7 0 -11 34 -11
91 0 57 -4 88 -10 84 -6 -4 -10 22 -10 72 0 80 -11 121 -24 88 -3 -9 -6 -35
-6 -58 0 -31 -3 -38 -10 -27 -13 20 -13 130 0 130 6 0 10 30 10 70 0 40 -4 70
-10 70 -5 0 -10 -22 -10 -50 0 -38 -4 -50 -15 -50 -11 0 -15 13 -15 54 0 31 5
58 12 62 7 5 8 3 3 -6 -5 -9 -4 -11 3 -6 7 4 12 29 12 57 0 37 -4 49 -15 49
-10 0 -15 10 -15 29 0 16 -6 31 -14 34 -10 4 -13 1 -9 -9 3 -9 -1 -14 -12 -14
-13 0 -16 6 -13 24 4 17 1 23 -9 19 -16 -6 -17 19 0 36 10 11 10 13 0 7 -7 -4
-13 -2 -13 4 0 6 -4 8 -10 5 -5 -3 -10 1 -10 10 0 10 5 13 12 9 7 -4 8 -3 4 4
-4 7 -11 12 -16 12 -15 0 -50 33 -50 47 0 7 -11 13 -25 13 -14 0 -25 5 -25 10
0 6 -7 10 -15 10 -8 0 -15 4 -15 9 0 5 -31 12 -70 16 -38 4 -70 11 -70 16 0 5
-11 9 -25 9 -14 0 -25 5 -25 10 0 6 -22 10 -50 10 -27 0 -50 5 -50 10 0 6 -16
10 -35 10 -19 0 -35 5 -35 10 0 6 -16 10 -35 10 -19 0 -35 5 -35 10 0 6 -7 10
-15 10 -8 0 -15 9 -15 20 0 11 7 20 15 20 9 0 15 9 15 24 0 13 6 27 13 30 10
5 10 7 0 12 -7 3 -13 19 -13 35 0 19 -5 29 -15 29 -9 0 -15 10 -15 26 0 14 -4
23 -8 20 -4 -2 -9 5 -9 17 -1 12 -7 23 -13 25 -5 2 -10 12 -10 23 0 10 -7 19
-15 19 -10 0 -15 10 -15 30 0 17 -4 30 -10 30 -5 0 -10 12 -10 28 1 24 2 25
14 10 7 -10 18 -18 25 -18 6 0 11 -13 11 -30 0 -16 5 -30 10 -30 6 0 10 -9 10
-20 0 -11 5 -20 10 -20 6 0 10 -9 10 -20 0 -11 7 -23 15 -26 8 -4 15 -15 15
-25 0 -10 5 -19 10 -19 6 0 10 -15 10 -32 l0 -33 29 33 c16 17 32 32 35 32 4
0 18 11 31 25 31 30 32 71 4 96 -11 9 -20 20 -20 23 3 20 -1 26 -14 26 -8 0
-15 9 -15 20 0 13 -9 22 -25 26 -14 3 -25 12 -25 20 0 18 -31 54 -42 48 -4 -3
-8 4 -8 15 0 12 -4 21 -10 21 -5 0 -10 9 -10 20 0 11 -4 20 -10 20 -5 0 -10 7
-10 15 0 8 -7 15 -15 15 -8 0 -15 9 -15 20 0 11 -4 20 -10 20 -5 0 -10 9 -10
20 0 11 -5 20 -11 20 -15 0 -39 26 -39 43 0 8 -11 18 -25 21 -14 4 -23 11 -20
16 3 6 1 10 -6 10 -7 0 -10 3 -6 6 7 8 -17 34 -32 34 -6 0 -11 16 -11 36 0 21
-4 33 -10 29 -6 -4 -10 12 -10 39 0 37 -3 46 -17 46 -15 0 -16 2 -3 10 9 6 10
10 3 10 -11 0 -16 34 -29 210 -3 41 -10 77 -15 81 -13 8 -12 1163 1 1167 6 2
10 36 10 78 0 43 4 74 10 74 6 0 10 42 10 105 0 63 -4 105 -10 105 -5 0 -10 9
-10 19 0 17 -18 31 -41 31 -5 0 -9 -20 -9 -45 0 -36 3 -45 18 -45 14 0 15 -2
2 -10 -10 -6 -11 -10 -2 -10 8 0 12 -18 12 -55 0 -41 -4 -55 -14 -55 -11 0
-16 -19 -19 -77 -7 -109 -17 -153 -33 -153 -9 0 -14 -11 -14 -30 0 -16 -4 -30
-10 -30 -5 0 -10 -7 -10 -15 0 -8 -7 -15 -15 -15 -8 0 -15 -9 -15 -20 0 -11
-4 -20 -10 -20 -5 0 -10 -9 -10 -20 0 -11 -4 -20 -10 -20 -5 0 -10 -9 -10 -20
0 -11 -7 -20 -15 -20 -8 0 -15 -5 -15 -11 0 -14 -25 -39 -39 -39 -6 0 -11 -9
-11 -20 0 -11 -4 -20 -10 -20 -5 0 -10 -9 -10 -20 0 -11 -5 -20 -11 -20 -6 0
-23 -13 -38 -28 -21 -23 -38 -30 -89 -36 l-62 -7 0 46 c0 38 -3 45 -20 45 -13
0 -20 -7 -20 -20 0 -11 -7 -20 -15 -20 -11 0 -15 -12 -15 -45 0 -25 -4 -45
-10 -45 -5 0 -10 -9 -10 -20 0 -11 -7 -20 -15 -20 -11 0 -15 -11 -15 -40 0
-22 -4 -40 -10 -40 -5 0 -10 -7 -10 -15 0 -8 -7 -15 -15 -15 -10 0 -15 -10
-15 -30 0 -16 -4 -30 -10 -30 -5 0 -10 -9 -10 -20 0 -11 -4 -20 -10 -20 -5 0
-10 -9 -10 -20 0 -11 -7 -20 -15 -20 -8 0 -15 -7 -15 -15 0 -8 -4 -15 -10 -15
-5 0 -10 -9 -10 -20 0 -11 -5 -20 -10 -20 -17 0 -60 -47 -60 -65 0 -8 -5 -15
-11 -15 -7 0 -19 -8 -28 -19 -9 -10 -26 -21 -38 -25 -13 -4 -23 -12 -23 -17 0
-5 -6 -9 -13 -9 -7 0 -19 -9 -27 -20 -8 -11 -24 -20 -35 -20 -11 0 -27 -9 -35
-20 -8 -11 -19 -20 -25 -20 -6 0 -17 -9 -25 -20 -8 -11 -18 -20 -23 -20 -5 0
-15 -6 -22 -12 -36 -32 -46 -38 -65 -38 -11 0 -20 -4 -20 -10 0 -5 -6 -10 -13
-10 -7 0 -19 -9 -27 -20 -8 -11 -20 -20 -27 -20 -7 0 -13 -4 -13 -10 0 -5 -9
-10 -20 -10 -11 0 -20 -4 -20 -10 0 -5 -5 -10 -11 -10 -14 0 -39 -25 -39 -39
0 -6 -6 -10 -12 -8 -9 1 -14 -13 -16 -40 -2 -34 0 -43 12 -43 14 0 16 -18 16
-115 0 -70 4 -115 10 -115 6 0 10 -7 10 -16 0 -8 -4 -12 -10 -9 -6 4 -10 -13
-10 -44 0 -41 -3 -49 -15 -45 -11 5 -15 -1 -15 -25 0 -17 -4 -31 -10 -31 -5 0
-10 -7 -10 -15 0 -8 -5 -15 -11 -15 -6 0 -24 -13 -39 -30 -15 -16 -33 -30 -39
-30 -6 0 -10 -3 -10 -7 3 -21 -3 -33 -17 -33 -8 0 -12 -4 -9 -10 3 -5 0 -7 -7
-5 -9 4 -19 -7 -28 -30 -7 -19 -17 -35 -22 -35 -4 0 -8 -7 -8 -15 0 -8 -9 -15
-19 -15 -13 0 -21 -9 -26 -30 -4 -16 -13 -30 -21 -30 -10 0 -14 -13 -14 -47 0
-35 3 -44 10 -33 8 13 12 12 25 -7 18 -26 30 -28 50 -10 8 6 21 18 30 25 8 7
13 17 10 23 -4 5 -2 9 4 9 5 0 12 -6 14 -12 3 -8 6 -5 6 5 1 18 23 47 36 47
12 0 55 49 55 63 0 8 11 18 25 21 16 4 25 13 25 26 0 11 5 20 11 20 16 0 39
26 39 44 0 10 9 16 21 16 27 0 48 27 49 63 0 17 5 27 15 27 8 0 15 9 15 20 0
11 5 20 10 20 6 0 10 14 10 30 0 20 5 30 15 30 9 0 15 9 15 25 0 14 -6 25 -13
25 -7 0 -19 9 -27 20 -8 11 -20 20 -27 20 -7 0 -13 9 -13 20 0 11 -4 20 -10
20 -5 0 -10 5 -10 10 0 18 45 10 60 -10 8 -11 20 -20 27 -20 7 0 13 -7 13 -16
0 -18 23 -44 39 -44 6 0 11 -7 11 -16 0 -8 5 -12 10 -9 6 4 10 -5 10 -19 0
-14 5 -26 10 -26 6 0 10 -9 10 -20 0 -11 7 -20 15 -20 8 0 15 -9 15 -20 0 -11
5 -20 10 -20 6 0 10 -7 10 -15 0 -8 7 -15 15 -15 8 0 15 -9 15 -20 0 -11 5
-20 10 -20 6 0 10 -9 10 -20 0 -11 7 -20 15 -20 11 0 15 -12 15 -45 0 -25 5
-45 10 -45 6 0 10 -35 10 -85 0 -50 4 -85 10 -85 6 0 10 -42 10 -105 0 -87 3
-105 15 -105 12 0 15 -15 15 -75 0 -43 4 -75 10 -75 6 0 10 -30 10 -70 0 -56
3 -70 15 -70 12 0 15 -13 15 -55 0 -30 5 -55 10 -55 6 0 10 -28 10 -65 0 -51
3 -65 15 -65 12 0 15 -13 15 -60 0 -33 4 -60 10 -60 6 0 10 -28 10 -65 0 -37
4 -65 10 -65 6 0 10 -25 10 -55 0 -42 3 -55 15 -55 13 0 15 -22 15 -139 0 -83
4 -142 10 -146 6 -4 10 -60 10 -136 0 -108 2 -129 15 -129 13 0 15 -22 15
-134 0 -139 -6 -179 -21 -154 -5 7 -9 -25 -9 -79 0 -50 -4 -95 -10 -98 -5 -3
-10 -33 -10 -66 0 -44 -4 -61 -15 -65 -10 -4 -15 -20 -15 -46 0 -23 -4 -37
-10 -33 -6 4 -10 -12 -10 -39 0 -25 -4 -46 -10 -46 -5 0 -10 -16 -10 -36 0
-28 -3 -35 -15 -30 -12 4 -15 -3 -15 -29 0 -19 -4 -35 -10 -35 -5 0 -10 -13
-10 -30 0 -20 -5 -30 -15 -30 -9 0 -15 -9 -15 -25 0 -14 -4 -25 -10 -25 -5 0
-10 -13 -10 -30 0 -20 -5 -30 -15 -30 -8 0 -15 -9 -15 -19 0 -11 -4 -23 -10
-26 -5 -3 -10 -15 -10 -26 0 -10 -4 -19 -10 -19 -5 0 -10 -9 -10 -20 0 -11 -7
-20 -15 -20 -10 0 -15 -10 -15 -30 0 -16 -4 -30 -10 -30 -5 0 -10 -9 -10 -20
0 -11 -7 -20 -15 -20 -8 0 -15 -7 -15 -15 0 -8 -4 -15 -10 -15 -5 0 -10 -13
-10 -30 0 -20 -5 -30 -15 -30 -8 0 -15 -9 -15 -20 0 -11 -4 -20 -10 -20 -5 0
-10 -11 -10 -25 0 -14 -4 -25 -10 -25 -5 0 -10 -9 -10 -20 0 -11 -7 -20 -15
-20 -8 0 -15 -9 -15 -20 0 -11 -4 -20 -10 -20 -5 0 -10 -11 -10 -24 0 -28 -16
-43 -23 -24 -3 7 -6 1 -6 -14 -1 -16 -5 -28 -11 -28 -5 0 -10 -9 -10 -20 0
-11 -7 -20 -15 -20 -10 0 -15 -10 -15 -30 0 -16 -4 -30 -10 -30 -5 0 -10 -9
-10 -20 0 -11 -4 -20 -10 -20 -5 0 -10 -6 -10 -14 0 -8 -7 -16 -15 -20 -8 -3
-15 -15 -15 -26 0 -11 -4 -20 -10 -20 -5 0 -10 -11 -10 -25 0 -16 -6 -25 -15
-25 -13 0 -21 -26 -16 -53 1 -5 -3 -6 -9 -2 -5 3 -10 -1 -10 -9 0 -9 -7 -16
-15 -16 -8 0 -15 -7 -15 -15 0 -8 -4 -15 -10 -15 -5 0 -10 -13 -10 -30 0 -16
-4 -30 -10 -30 -5 0 -10 -13 -10 -30 0 -20 -5 -30 -15 -30 -8 0 -15 -7 -15
-15 0 -8 -4 -15 -10 -15 -5 0 -10 16 -10 35 0 19 5 35 10 35 16 0 13 457 -2
463 -10 4 -10 6 0 6 16 1 18 1351 2 1351 -6 0 -10 40 -10 99 0 79 -3 100 -15
105 -20 7 -19 36 1 36 8 0 13 4 10 8 -2 4 0 14 5 22 7 12 10 11 15 -7 4 -13
11 -23 16 -23 5 0 20 -11 34 -25 14 -14 30 -25 37 -25 7 0 19 -9 27 -20 8 -11
20 -20 27 -20 7 0 13 -4 13 -10 0 -5 5 -10 10 -10 6 0 10 16 10 35 0 24 5 35
15 35 10 0 15 10 15 30 0 17 5 30 10 30 6 0 10 16 10 35 0 19 5 35 10 35 6 0
10 9 10 20 0 11 5 20 11 20 5 0 7 5 4 10 -3 6 -1 10 4 10 6 0 11 9 11 20 0 11
5 20 10 20 6 0 10 11 10 25 0 14 7 28 15 31 8 4 15 14 15 24 0 10 6 25 13 32
8 7 12 19 9 26 -2 6 3 12 12 12 9 0 16 7 16 16 0 22 32 53 38 36 4 -14 32 -16
32 -2 0 5 -6 9 -12 7 -7 -1 -14 8 -16 20 -2 17 1 21 11 17 8 -3 21 2 30 10 9
9 20 16 26 16 6 0 11 4 11 9 0 5 12 12 28 16 52 13 62 31 62 117 0 45 -4 78
-10 78 -5 0 -10 9 -10 20 0 11 -4 20 -10 20 -5 0 -10 6 -10 14 0 8 -5 18 -12
22 -7 5 -8 3 -3 -6 5 -9 4 -11 -3 -6 -7 4 -12 12 -12 17 0 14 -26 39 -39 39
-6 0 -11 4 -11 9 0 5 -10 13 -22 17 -13 4 -35 20 -49 35 -15 16 -31 29 -36 29
-5 0 -15 9 -23 20 -8 11 -19 20 -25 20 -6 0 -17 9 -25 20 -8 11 -18 20 -23 20
-10 0 -37 26 -37 35 0 9 -27 35 -37 35 -5 0 -15 9 -23 20 -8 11 -20 20 -27 20
-7 0 -13 9 -13 20 0 11 7 20 15 20 8 0 15 5 15 10 0 7 26 10 70 8 39 -1 70 -6
70 -10 0 -4 7 -8 15 -8 8 0 15 -4 15 -10 0 -5 11 -10 24 -10 13 0 26 -4 28 -9
2 -6 29 -11 61 -12 31 -1 57 -6 57 -11 0 -4 5 -8 10 -8 6 0 10 14 10 30 0 17
-4 30 -10 30 -5 0 -10 11 -10 25 0 16 -6 25 -15 25 -8 0 -15 9 -15 20 0 11 -4
20 -10 20 -5 0 -10 9 -10 20 0 11 -7 20 -15 20 -8 0 -15 9 -15 20 0 11 -4 20
-10 20 -5 0 -10 9 -10 20 0 11 -4 20 -10 20 -5 0 -10 7 -10 15 0 8 -5 15 -11
15 -16 0 -39 26 -39 44 0 9 -7 16 -15 16 -9 0 -15 10 -15 26 0 14 -4 23 -10
19 -5 -3 -10 3 -10 14 0 12 -7 21 -15 21 -8 0 -15 5 -15 10 0 12 -45 60 -55
60 -12 0 -35 29 -35 44 0 9 -6 16 -13 16 -7 0 -19 9 -27 20 -8 11 -18 20 -23
20 -5 0 -15 7 -24 15 -24 25 -83 -3 -83 -39 0 -9 -7 -16 -15 -16 -8 0 -15 -5
-15 -11 0 -5 -4 -7 -10 -4 -5 3 -10 1 -10 -5 0 -13 -24 -40 -36 -40 -3 0 -14
-8 -23 -19 -9 -10 -26 -21 -38 -25 -13 -4 -23 -14 -23 -21 0 -9 -6 -12 -15 -9
-10 4 -15 0 -15 -10 0 -17 -43 -66 -57 -66 -5 0 -15 -9 -23 -20 -8 -11 -20
-20 -27 -20 -7 0 -13 -4 -13 -9 0 -5 -10 -13 -22 -17 -13 -4 -35 -20 -49 -35
-15 -16 -32 -29 -38 -29 -6 0 -11 -7 -11 -16 0 -15 -23 -44 -35 -44 -15 0 -35
31 -35 54 0 27 -15 35 -23 14 -3 -7 -6 3 -6 23 -1 33 -29 108 -32 84 -1 -5 -4
0 -7 13 -4 13 -10 22 -13 20 -9 -5 -39 30 -39 46 0 9 -7 16 -16 16 -9 0 -12 5
-8 12 4 7 3 8 -4 4 -6 -4 -17 2 -24 14 -7 11 -18 20 -25 20 -6 0 -15 9 -18 20
-4 11 -11 18 -16 15 -5 -4 -9 1 -9 9 0 9 -5 16 -11 16 -5 0 -7 -5 -3 -12 4 -7
3 -8 -4 -4 -7 4 -12 14 -12 22 0 8 -4 14 -10 14 -5 0 -10 10 -10 23 0 16 -3
18 -9 8 -7 -11 -10 -9 -15 7 -4 12 -16 24 -27 27 -10 4 -19 15 -19 26 0 10 -6
19 -13 19 -7 0 -19 9 -27 20 -8 11 -19 20 -25 20 -6 0 -17 9 -25 20 -8 11 -22
20 -32 20 -10 0 -18 5 -18 10 0 6 -7 10 -15 10 -8 0 -15 4 -15 9 0 5 -11 12
-25 15 -14 4 -25 11 -25 17 0 6 -4 8 -9 4 -5 -3 -12 -1 -16 5 -4 6 -11 8 -16
5 -5 -4 -9 1 -9 9 0 10 -6 13 -17 9 -10 -3 -15 -3 -11 1 6 8 1 17 -31 52 -7 8
-20 13 -28 10 -8 -3 -12 -2 -8 3 3 5 -2 16 -10 24 -8 9 -15 20 -15 26 0 6 -7
11 -15 11 -10 0 -15 10 -15 30 0 17 -4 30 -10 30 -6 0 -10 47 -10 121 0 77 4
118 10 114 8 -5 17 178 11 218 0 4 6 7 14 7 8 0 15 7 15 15 0 8 -7 15 -15 15
-11 0 -15 12 -15 50 0 45 -2 50 -23 50 -12 0 -29 9 -37 20 -8 11 -24 20 -36
20 -13 0 -29 7 -38 15 -8 8 -23 15 -33 15 -10 0 -25 9 -33 20 -8 11 -25 20
-37 20 -13 0 -23 5 -23 10 0 6 -6 10 -13 10 -7 0 -19 9 -27 20 -8 11 -20 20
-27 20 -7 0 -13 5 -13 10 0 6 -9 10 -20 10 -12 0 -20 7 -20 16 0 10 -6 14 -15
10 -8 -3 -15 -1 -15 5 0 13 -25 39 -37 39 -5 0 -15 9 -23 20 -8 11 -18 20 -23
20 -14 0 -37 27 -37 44 0 9 -4 16 -10 16 -5 0 -10 7 -10 15 0 8 -5 15 -11 15
-16 0 -39 26 -39 44 0 9 -7 16 -15 16 -10 0 -15 10 -15 30 0 17 -4 30 -10 30
-5 0 -10 11 -10 25 0 16 -6 25 -15 25 -11 0 -15 11 -15 40 0 22 -4 40 -10 40
-5 0 -10 14 -10 30 0 17 -4 30 -10 30 -5 0 -10 12 -10 26 0 26 -1 26 -47 19
-27 -4 -49 -11 -51 -16 -5 -12 -32 -12 -32 0 0 5 -15 12 -34 15 -19 4 -36 11
-38 17 -2 5 -13 11 -25 12 -12 0 -20 4 -17 8 2 4 -7 19 -21 33 -14 14 -25 32
-25 41 0 8 -5 15 -11 15 -14 0 -39 25 -39 39 0 6 -7 11 -15 11 -8 0 -15 9 -15
20 0 11 -4 20 -10 20 -5 0 -10 9 -10 20 0 11 -7 20 -15 20 -8 0 -15 9 -15 20
0 11 -4 20 -10 20 -5 0 -10 11 -10 25 0 14 -4 25 -10 25 -5 0 -10 9 -10 20 0
11 -7 20 -15 20 -11 0 -15 12 -15 50 0 28 -4 50 -10 50 -5 0 -10 23 -10 50 0
38 -4 50 -15 50 -12 0 -15 17 -15 90 0 73 3 90 15 90 9 0 15 10 15 26 0 32 21
54 52 54 43 0 68 12 68 31 0 14 7 19 25 19 18 0 25 -5 25 -20 0 -11 5 -20 10
-20 6 0 10 -6 10 -14 0 -8 7 -16 15 -20 9 -3 15 -18 15 -36 0 -30 37 -80 60
-80 5 0 10 -5 10 -11 0 -14 25 -39 39 -39 6 0 11 -9 11 -20 0 -11 5 -20 10
-20 6 0 10 -13 10 -30 0 -16 5 -30 10 -30 6 0 10 -11 10 -25 0 -16 6 -25 15
-25 10 0 15 -10 15 -30 0 -16 5 -30 10 -30 6 0 10 -9 10 -20 0 -11 7 -20 15
-20 8 0 15 -9 15 -20 0 -11 5 -20 10 -20 6 0 10 -7 10 -15 0 -8 5 -15 10 -15
17 0 60 -47 60 -65 0 -8 6 -15 13 -15 7 0 19 -9 27 -20 8 -11 19 -20 25 -20 6
0 17 -9 24 -19 9 -13 32 -22 63 -26 26 -4 48 -11 48 -16 0 -5 11 -9 25 -9 14
0 25 -4 25 -10 0 -5 16 -10 35 -10 19 0 35 -4 35 -10 0 -6 27 -10 60 -10 33 0
60 -4 60 -10 0 -6 75 -10 205 -10 130 0 205 4 205 10 0 6 23 10 50 10 28 0 50
5 50 10 0 6 16 10 35 10 19 0 35 5 35 10 0 6 7 10 15 10 8 0 15 4 15 9 0 5 20
12 45 15 25 4 45 11 45 17 0 5 7 9 15 9 9 0 15 10 15 26 0 26 20 54 39 54 6 0
11 9 11 20 0 11 5 20 10 20 6 0 10 7 10 15 0 8 5 15 10 15 6 0 10 14 10 30 0
20 5 30 15 30 9 0 15 10 15 26 0 14 4 23 10 19 6 -4 10 12 10 39 0 34 4 46 15
46 8 0 15 9 15 20 0 11 5 20 10 20 6 0 10 14 10 30 0 19 5 30 14 30 8 0 17 6
20 13 5 10 7 10 12 0 3 -7 17 -13 30 -13 14 0 22 4 19 10 -3 6 1 10 9 10 9 0
16 5 16 10 0 7 6 7 19 0 11 -5 29 -10 40 -10 18 0 21 -6 21 -50 0 -27 5 -50
10 -50 6 0 10 -9 10 -20 0 -11 5 -20 10 -20 6 0 10 -11 10 -25 0 -16 6 -25 15
-25 8 0 15 -9 15 -20 0 -11 5 -20 10 -20 6 0 10 -13 10 -30 0 -20 5 -30 15
-30 8 0 15 -7 15 -15 0 -8 5 -15 10 -15 6 0 10 -7 10 -15 0 -9 6 -12 15 -9 10
4 15 0 15 -10 0 -17 43 -66 57 -66 5 0 15 -9 23 -20 8 -11 20 -20 27 -20 7 0
13 -4 13 -9 0 -5 10 -13 22 -17 28 -9 48 -28 48 -48 0 -13 14 -16 83 -16 71 0
85 -3 97 -20 14 -20 47 -29 35 -10 -3 6 -1 10 4 10 6 0 11 -4 11 -8 0 -5 47
-10 105 -11 69 -2 105 1 105 8 0 7 31 11 85 11 50 0 85 4 85 10 0 6 27 10 60
10 33 0 60 4 60 10 0 6 16 10 35 10 19 0 35 5 35 10 0 6 11 10 25 10 14 0 25
5 25 10 0 6 11 10 24 10 14 0 31 7 40 15 8 8 22 15 31 15 21 0 45 24 45 44 0
9 6 16 13 16 7 0 19 9 27 20 8 11 20 20 27 20 7 0 13 9 13 19 0 11 9 23 20 26
11 3 20 15 20 26 0 10 7 19 15 19 8 0 15 9 15 20 0 11 5 20 10 20 6 0 10 9 10
20 0 11 7 20 15 20 8 0 15 9 15 20 0 11 5 20 10 20 6 0 10 11 10 25 0 16 6 25
15 25 10 0 15 10 15 30 0 17 5 30 10 30 6 0 10 9 10 19 0 11 5 23 10 26 6 3
10 15 10 26 0 10 7 19 15 19 8 0 15 9 15 20 0 11 5 20 10 20 6 0 10 11 10 24
0 14 5 28 12 32 7 4 8 3 4 -4 -4 -7 -2 -12 3 -12 6 0 11 9 11 20 0 15 7 20 25
20 14 0 25 5 25 10 0 6 26 10 58 10 52 0 58 2 70 27 6 15 12 64 12 110 0 67 3
83 15 83 10 0 15 10 15 30 0 17 5 30 10 30 6 0 10 18 10 40 0 22 5 40 10 40 6
0 10 65 10 175 0 96 -4 175 -8 175 -5 0 -15 23 -22 50 -7 28 -19 50 -26 50 -7
0 -14 12 -16 28 -2 16 -12 31 -25 37 -13 5 -23 18 -23 27 0 10 -4 18 -10 18
-5 0 -10 9 -10 20 0 11 -7 20 -15 20 -8 0 -15 9 -15 20 0 11 -4 20 -10 20 -5
0 -10 7 -10 16 0 9 -5 12 -12 8 -7 -4 -8 -3 -4 5 4 6 0 14 -11 18 -10 4 -25
15 -34 25 -9 10 -23 18 -30 18 -9 0 -10 3 -3 8 6 4 14 15 17 26 6 14 3 17 -8
12 -10 -4 -15 1 -15 14 0 38 41 16 52 -28 3 -12 2 -20 -3 -16 -5 3 -9 0 -9 -7
0 -6 8 -9 20 -6 14 3 20 0 20 -10 0 -9 9 -24 21 -34 11 -9 20 -20 20 -23 -3
-19 0 -26 10 -26 16 0 50 -41 43 -51 -3 -5 2 -9 10 -9 9 0 16 -6 16 -12 1 -20
23 -44 48 -52 18 -6 22 -4 22 13 0 12 5 21 10 21 6 0 5 11 -3 28 -8 15 -13 41
-10 57 3 23 1 26 -7 15 -7 -11 -10 0 -10 42 0 40 -4 59 -15 65 -9 5 -16 26
-18 51 -1 23 -5 42 -9 42 -5 0 -8 11 -8 25 0 14 -5 25 -11 25 -5 0 -7 5 -4 10
3 6 1 10 -4 10 -6 0 -11 9 -11 20 0 11 -4 20 -10 20 -5 0 -10 9 -10 20 0 11
-7 20 -15 20 -8 0 -15 9 -15 20 0 11 -4 20 -10 20 -5 0 -10 7 -10 15 0 8 -4
15 -10 15 -5 0 -10 9 -10 20 0 11 -5 20 -11 20 -16 0 -39 26 -39 44 0 9 -6 16
-13 16 -8 0 -20 11 -27 25 -7 14 -17 25 -22 25 -15 0 -58 48 -58 65 0 8 -6 15
-13 15 -7 0 -19 9 -27 20 -8 11 -18 20 -22 20 -4 0 -24 16 -44 35 -19 19 -40
35 -45 35 -6 0 -7 5 -4 10 3 6 -4 10 -17 10 -13 0 -30 9 -38 20 -8 11 -20 20
-27 20 -7 0 -13 5 -13 10 0 6 -10 10 -23 10 -12 0 -29 9 -37 20 -9 13 -26 20
-47 20 -18 0 -33 5 -33 10 0 6 -38 10 -94 10 -108 0 -126 5 -126 31 0 10 -4
19 -10 19 -5 0 -10 9 -10 20 0 11 -7 20 -15 20 -13 0 -16 5 -15 25 1 10 -28
35 -39 35 -6 0 -11 4 -11 9 0 5 -10 13 -22 17 -13 4 -35 20 -49 35 -15 16 -32
29 -38 29 -6 0 -11 5 -11 10 0 6 -10 10 -21 10 -12 0 -29 8 -38 18 -9 10 -31
24 -48 31 -18 8 -33 17 -33 22 0 5 -11 9 -25 9 -14 0 -25 4 -25 10 0 5 -27 12
-60 16 -33 4 -60 11 -60 15 0 5 -18 9 -40 9 -22 0 -40 5 -40 10 0 6 -16 10
-35 10 -19 0 -35 5 -35 10 0 6 -22 10 -50 10 -27 0 -50 5 -50 10 0 6 -27 10
-60 10 -33 0 -60 4 -60 9 0 6 -85 10 -201 11 -136 0 -199 -3 -194 -10z m-455
-264 c0 -3 -4 -8 -10 -11 -5 -3 -10 -1 -10 4 0 6 5 11 10 11 6 0 10 -2 10 -4z
m-47 -23 c-13 -2 -23 -9 -23 -14 0 -5 -16 -9 -35 -9 -41 0 -47 17 -7 23 38 6
94 6 65 0z m1817 -235 c0 -16 -3 -19 -11 -11 -6 6 -8 16 -5 22 11 17 16 13 16
-11z m-2030 -157 c0 -5 -11 -11 -25 -13 -17 -4 -25 -1 -25 8 0 8 11 14 25 14
14 0 25 -4 25 -9z m-100 -57 c0 -10 -28 -34 -39 -34 -6 0 -11 -4 -11 -10 0 -5
-11 -10 -25 -10 -14 0 -28 -7 -31 -15 -4 -8 -12 -15 -20 -15 -8 0 -14 -4 -14
-10 0 -5 -7 -10 -15 -10 -8 0 -15 -4 -15 -9 0 -9 -48 -26 -62 -23 -5 1 -8 -4
-8 -10 0 -13 -44 -38 -66 -38 -7 0 -10 8 -7 20 3 11 12 20 20 20 8 0 11 5 8
10 -3 6 -1 11 4 11 6 1 15 2 21 3 5 0 19 9 30 19 11 9 25 17 30 17 6 0 10 4
10 9 0 5 20 12 45 15 25 4 45 11 45 17 0 5 6 9 13 9 7 0 19 9 27 20 13 18 60
29 60 14z m-340 -200 c0 -18 -23 -44 -39 -44 -6 0 -11 -7 -11 -15 0 -8 -6 -15
-14 -15 -8 0 -16 -4 -18 -9 -1 -5 -10 -11 -18 -13 -8 -2 -23 -12 -32 -22 -13
-14 -18 -15 -18 -5 0 8 -9 -1 -20 -19 -11 -18 -25 -30 -30 -27 -6 3 -7 -1 -4
-9 3 -9 2 -16 -3 -16 -18 0 -63 -49 -63 -68 0 -19 -42 -62 -60 -62 -6 0 -10
-9 -10 -21 0 -11 -4 -17 -10 -14 -5 3 -10 1 -10 -4 0 -6 -7 -11 -15 -11 -24 0
-17 25 10 40 14 7 25 19 25 26 0 6 7 14 15 18 8 3 15 17 15 32 0 26 32 64 54
64 7 0 18 9 26 20 8 11 20 20 27 20 7 0 13 7 13 16 0 8 7 22 15 30 8 9 15 13
15 10 0 -4 15 9 33 27 18 19 43 37 55 41 12 4 22 12 22 17 0 5 9 9 21 9 11 0
17 5 14 10 -3 6 -1 10 4 10 6 0 11 -7 11 -16z m2338 -213 c2 -6 11 -11 21 -11
9 0 23 -9 31 -20 8 -11 18 -20 23 -20 5 0 22 -13 37 -30 15 -16 32 -30 37 -30
5 0 15 -9 23 -20 8 -11 18 -20 23 -20 12 0 37 -27 37 -39 0 -6 5 -11 11 -11
15 0 59 -51 59 -67 0 -7 5 -13 11 -13 15 0 39 -26 39 -43 0 -8 11 -18 25 -21
16 -4 25 -13 25 -26 0 -11 5 -20 10 -20 6 0 10 -9 10 -20 0 -11 5 -20 11 -20
16 0 39 -26 39 -44 0 -9 7 -16 15 -16 8 0 15 -5 15 -11 0 -14 25 -39 39 -39 6
0 11 -9 11 -20 0 -11 5 -20 10 -20 6 0 10 -12 10 -26 0 -14 4 -23 10 -19 6 4
10 -7 10 -24 0 -21 5 -31 15 -31 9 0 15 -9 15 -25 0 -14 5 -25 10 -25 6 0 10
-13 10 -30 0 -20 5 -30 15 -30 10 0 15 -11 15 -35 0 -19 5 -35 10 -35 6 0 10
-18 10 -40 0 -29 4 -40 15 -40 12 0 15 -13 15 -55 0 -30 5 -55 10 -55 6 0 10
-9 10 -20 0 -16 -7 -20 -35 -20 -19 0 -35 -4 -35 -10 0 -5 -22 -10 -50 -10
-27 0 -50 -4 -50 -10 0 -5 -22 -10 -50 -10 -27 0 -50 5 -50 10 0 6 -28 10 -62
10 -45 0 -59 3 -48 10 12 8 11 10 -7 10 -13 0 -23 5 -23 10 0 6 30 10 70 10
43 0 70 4 70 11 0 5 -5 7 -10 4 -6 -3 -13 1 -16 10 -6 13 -8 14 -15 3 -6 -9
-9 -9 -9 -1 0 6 -20 15 -45 19 -25 3 -45 10 -45 15 0 5 -16 9 -35 9 -19 0 -35
5 -35 10 0 6 -28 10 -63 10 -36 0 -68 5 -75 12 -9 9 -12 9 -12 0 0 -8 -26 -12
-85 -12 -50 0 -85 -4 -85 -10 0 -5 -7 -10 -16 -10 -8 0 -12 5 -9 10 12 19 -21
10 -35 -10 -10 -14 -26 -20 -55 -20 -51 0 -86 -10 -79 -21 3 -5 0 -9 -5 -9 -6
0 -11 6 -12 13 0 10 -2 10 -6 0 -2 -7 -15 -13 -27 -13 -12 0 -28 -9 -36 -20
-8 -11 -25 -20 -37 -20 -13 0 -23 -4 -23 -10 0 -5 -11 -10 -25 -10 -14 0 -25
-4 -25 -10 0 -5 -11 -10 -25 -10 -14 0 -25 -4 -25 -10 0 -5 -9 -10 -20 -10
-11 0 -20 -4 -20 -10 0 -5 -11 -10 -24 -10 -14 0 -28 -4 -31 -10 -3 -5 -15
-10 -26 -10 -10 0 -19 -4 -19 -9 0 -6 -8 -10 -17 -9 -31 0 -78 -13 -81 -23 -2
-5 -15 -9 -28 -9 -13 0 -24 -4 -24 -8 0 -5 -15 -9 -32 -10 -18 0 -34 -6 -36
-11 -5 -14 -222 -15 -222 -1 0 6 -16 10 -35 10 -19 0 -35 5 -35 10 0 6 -11 10
-25 10 -14 0 -25 5 -25 10 0 6 -11 10 -24 10 -14 0 -31 7 -40 15 -8 8 -24 15
-35 15 -12 0 -21 5 -21 10 0 6 -11 10 -25 10 -14 0 -25 5 -25 10 0 6 -11 10
-25 10 -14 0 -25 5 -25 10 0 6 -11 10 -25 10 -14 0 -25 5 -25 10 0 6 -9 10
-20 10 -11 0 -20 5 -20 10 0 6 -11 10 -25 10 -14 0 -25 5 -25 10 0 6 -11 10
-25 10 -14 0 -25 5 -25 10 0 6 -11 10 -25 10 -20 0 -25 5 -26 28 -1 15 -1 30
0 35 0 4 -6 7 -15 7 -8 0 -12 5 -9 10 3 6 1 10 -4 10 -6 0 -11 -4 -11 -10 0
-5 -8 -10 -17 -10 -15 0 -16 2 -3 10 13 9 13 10 0 10 -13 0 -13 1 0 10 13 8
12 10 -2 10 -10 0 -18 -3 -18 -7 0 -5 -16 -9 -35 -10 -19 -2 -35 2 -35 7 0 6
-62 10 -165 10 -103 0 -165 4 -165 10 0 6 5 10 12 10 9 0 9 3 0 12 -7 7 -12
21 -11 33 0 11 3 14 6 8 3 -10 8 -10 19 1 8 8 14 19 14 23 0 5 19 10 41 12 23
1 45 2 48 3 46 5 201 -4 196 -12 -4 -6 11 -10 37 -10 24 0 141 -3 261 -7 164
-4 217 -3 217 6 0 15 -45 61 -60 61 -5 0 -10 5 -10 10 0 6 -11 10 -25 10 -14
0 -25 5 -25 10 0 6 -11 10 -25 10 -14 0 -25 5 -25 10 0 6 -20 10 -45 10 -25 0
-45 5 -45 10 0 6 -12 10 -27 10 -22 0 -25 2 -13 10 12 8 11 10 -7 10 -12 0
-24 -6 -26 -12 -3 -7 -6 -1 -6 15 -1 15 4 27 10 27 16 0 39 27 39 46 0 13 3
14 15 4 10 -9 15 -9 15 -1 0 6 11 11 25 11 14 0 25 5 25 10 0 6 10 10 23 11
12 0 16 3 10 6 -10 3 -10 8 1 19 8 8 19 14 25 14 6 0 11 6 12 13 0 8 2 8 6 -2
5 -11 7 -11 14 0 7 11 9 11 9 1 0 -8 7 -6 21 7 12 11 27 17 35 14 9 -3 14 2
14 16 0 14 6 21 18 21 10 0 22 4 27 9 6 5 24 11 40 13 17 2 42 15 57 31 15 16
37 27 53 27 15 0 24 4 20 10 -5 9 15 15 38 11 4 0 7 4 7 9 0 6 6 10 14 10 8 0
21 7 29 15 8 8 29 16 46 17 17 1 31 6 31 10 0 4 7 8 15 8 8 0 15 5 15 10 0 6
12 10 26 10 14 0 23 4 19 10 -3 6 3 10 15 10 12 0 28 7 36 15 8 8 21 12 29 9
8 -4 15 -1 15 5 0 6 7 11 16 11 8 0 22 7 31 15 8 8 19 13 24 10 5 -4 9 -2 9 4
0 5 10 12 23 16 67 18 97 29 97 37 0 4 10 8 23 8 12 0 29 9 37 20 8 11 25 20
37 20 13 0 23 6 23 13 0 8 4 7 10 -3 6 -10 10 -11 10 -2 0 6 11 12 25 12 14 0
25 5 25 10 0 6 11 10 24 10 14 0 28 5 31 10 3 6 15 10 26 10 10 0 19 5 19 10
0 6 11 10 25 10 14 0 25 4 25 9 0 15 36 19 145 16 63 -2 100 -6 103 -14z
m-2658 -61 c0 -5 -5 -10 -11 -10 -5 0 -7 5 -4 10 3 6 8 10 11 10 2 0 4 -4 4
-10z m3640 -63 c0 -18 -2 -19 -10 -7 -13 20 -13 43 0 35 6 -3 10 -16 10 -28z
m-3723 -49 c-3 -8 -6 -5 -6 6 -1 11 2 17 5 13 3 -3 4 -12 1 -19z m-127 -118
c0 -5 -7 -10 -15 -10 -8 0 -15 5 -15 10 0 6 7 10 15 10 8 0 15 -4 15 -10z
m-184 -350 c8 0 14 -9 14 -20 0 -11 -6 -20 -14 -20 -8 0 -21 -6 -28 -14 -19
-19 -58 -30 -58 -16 0 6 7 13 15 16 8 4 15 12 15 20 0 8 4 14 9 14 5 0 12 10
16 23 4 13 8 17 12 10 2 -7 11 -13 19 -13z m827 -326 c12 -12 -22 -34 -52 -34
-17 0 -31 -4 -31 -10 0 -6 -28 -10 -65 -10 -63 0 -65 -1 -65 -25 0 -16 6 -25
15 -25 8 0 15 -9 15 -20 0 -11 -7 -20 -15 -20 -8 0 -15 -4 -15 -10 0 -6 -30
-10 -70 -10 -69 0 -70 1 -70 26 0 26 20 54 39 54 6 0 11 5 11 10 0 6 15 10 34
10 19 0 41 7 50 15 8 8 19 15 25 15 6 0 11 5 11 10 0 6 11 10 25 10 14 0 25 5
25 10 0 11 122 14 133 4z m-183 -239 c0 -10 -11 -15 -35 -15 -24 0 -35 5 -35
15 0 10 11 15 35 15 24 0 35 -5 35 -15z m920 6 c0 -5 23 -12 50 -16 28 -4 50
-11 50 -16 0 -5 10 -9 23 -9 12 0 29 -9 37 -20 8 -11 24 -20 35 -20 11 0 27
-9 35 -20 8 -11 18 -20 23 -20 16 0 37 -28 37 -49 0 -12 5 -21 10 -21 6 0 10
-22 10 -48 0 -36 -5 -51 -20 -62 -14 -10 -20 -26 -20 -53 0 -24 -5 -40 -15
-43 -9 -4 -15 -19 -15 -35 0 -16 -4 -29 -10 -29 -5 0 -10 -9 -10 -20 0 -11 -7
-20 -15 -20 -8 0 -15 -6 -15 -13 0 -7 -9 -19 -20 -27 -11 -8 -20 -22 -20 -32
0 -10 -6 -18 -13 -18 -7 0 -19 -9 -27 -20 -8 -11 -20 -20 -27 -20 -7 0 -13 -4
-13 -10 0 -5 -10 -10 -21 -10 -12 0 -29 -8 -38 -17 -20 -22 -30 -25 -113 -31
-38 -2 -68 -8 -68 -13 0 -5 -81 -9 -180 -9 -101 0 -180 4 -180 9 0 5 -38 12
-85 16 -47 4 -85 11 -85 16 0 5 -11 9 -25 9 -14 0 -25 5 -25 10 0 6 -10 10
-23 10 -12 0 -29 9 -37 20 -8 11 -19 20 -25 20 -6 0 -17 9 -25 20 -8 11 -20
20 -27 20 -7 0 -13 9 -13 20 0 13 -9 22 -25 26 -16 4 -25 13 -25 25 0 10 -4
19 -10 19 -5 0 -10 15 -10 33 0 24 -3 28 -10 17 -7 -11 -10 -4 -10 28 0 31 -4
42 -15 42 -11 0 -15 12 -15 45 0 25 -4 45 -10 45 -5 0 -10 25 -10 55 0 42 -3
55 -15 55 -11 0 -15 11 -15 40 0 28 4 40 14 40 8 0 17 6 20 13 5 10 7 10 12 0
3 -7 12 -13 20 -13 8 0 14 -9 14 -20 0 -11 5 -20 11 -20 5 0 7 5 4 10 -4 6 13
10 45 10 53 0 80 -15 80 -44 0 -12 10 -16 41 -16 22 0 38 3 36 8 -3 4 6 8 19
8 19 2 24 -3 24 -23 0 -14 4 -21 10 -18 6 3 13 -1 16 -9 14 -36 74 -8 74 33 0
12 5 21 10 21 6 0 10 9 10 20 0 11 7 20 15 20 8 0 15 7 15 16 0 18 23 44 39
44 6 0 11 5 11 10 0 6 27 10 60 10 33 0 60 -4 60 -10 0 -5 -5 -10 -11 -10 -16
0 -39 -26 -39 -44 0 -9 -4 -16 -10 -16 -6 0 -10 -32 -10 -75 0 -43 4 -75 10
-75 6 0 10 -18 10 -40 0 -22 5 -40 10 -40 6 0 10 14 10 30 0 33 15 36 41 8 9
-10 26 -18 38 -18 14 0 21 -6 21 -20 0 -16 -7 -20 -35 -20 -24 0 -35 5 -35 14
0 8 -5 18 -12 22 -7 4 -8 3 -4 -4 4 -7 2 -12 -3 -12 -6 0 -11 -7 -11 -15 0 -8
7 -15 15 -15 8 0 15 -9 15 -20 0 -18 7 -20 85 -20 l85 0 0 -30 c0 -20 5 -30
15 -30 8 0 15 5 15 10 0 15 30 12 31 -2 0 -10 2 -10 6 0 2 6 16 12 29 12 13 0
24 4 24 8 0 5 6 9 13 10 6 1 22 3 34 4 12 2 32 11 43 21 18 15 52 26 37 11 -7
-8 17 -34 32 -34 16 0 13 11 -6 27 -17 14 -17 14 0 9 11 -3 17 0 17 9 0 8 11
17 25 21 24 6 25 10 25 75 0 55 -3 69 -15 69 -10 0 -15 10 -15 34 0 19 -4 36
-10 38 -5 2 -11 15 -12 30 -2 22 -5 25 -17 15 -11 -9 -13 -9 -8 0 4 6 0 18 -8
26 -8 9 -15 23 -15 31 0 9 -11 18 -25 22 -14 3 -25 10 -25 15 0 5 11 9 25 9
14 0 25 -4 25 -9z m2046 -5 c8 -8 14 -19 14 -25 0 -6 5 -11 10 -11 6 0 10 -18
10 -40 0 -29 4 -40 15 -40 8 0 15 -9 15 -20 0 -11 -7 -20 -15 -20 -12 0 -15
-17 -15 -95 0 -57 -4 -95 -10 -95 -5 0 -10 -16 -10 -35 0 -19 -4 -35 -10 -35
-5 0 -10 -9 -10 -20 0 -11 -7 -20 -15 -20 -8 0 -15 -9 -15 -20 0 -11 -4 -20
-10 -20 -5 0 -10 -7 -10 -15 0 -8 -5 -15 -11 -15 -16 0 -39 -27 -39 -46 0 -14
-3 -14 -16 -4 -8 8 -14 9 -13 4 4 -23 -3 -34 -21 -34 -11 0 -20 -4 -20 -10 0
-5 -7 -10 -15 -10 -8 0 -15 -4 -15 -10 0 -5 -11 -10 -25 -10 -14 0 -25 -4 -25
-10 0 -5 -9 -10 -20 -10 -11 0 -20 -4 -20 -9 0 -8 -116 -19 -242 -23 -32 -1
-58 -5 -58 -10 0 -4 -31 -8 -70 -8 -38 0 -70 4 -70 8 0 5 -48 12 -107 15 -61
3 -109 11 -111 17 -2 5 -19 10 -38 10 -19 0 -34 5 -34 10 0 6 -5 10 -11 10 -6
0 -24 14 -39 30 -15 17 -32 30 -37 30 -5 0 -15 9 -23 20 -8 11 -18 20 -23 20
-12 0 -37 27 -37 39 0 6 -7 11 -15 11 -10 0 -15 10 -15 30 0 17 -4 30 -10 30
-5 0 -10 14 -10 30 0 17 -4 30 -10 30 -5 0 -10 16 -10 35 0 24 -5 35 -15 35
-12 0 -15 16 -15 85 0 55 4 85 11 85 6 0 24 14 39 30 15 17 35 30 45 30 9 0
13 5 10 10 -4 6 8 10 29 10 20 0 36 5 36 10 0 6 11 10 25 10 14 0 25 5 25 10
0 6 11 10 25 10 14 0 25 -4 25 -10 0 -5 -5 -10 -10 -10 -17 0 -60 -47 -60 -65
0 -8 -6 -15 -13 -15 -7 0 -19 -9 -27 -20 -8 -11 -20 -20 -27 -20 -7 0 -13 -7
-13 -15 0 -8 -4 -15 -10 -15 -15 0 -12 -49 4 -66 8 -8 18 -14 23 -14 5 0 15
-9 23 -20 17 -23 44 -25 83 -7 24 10 27 18 27 60 0 26 5 47 10 47 6 0 10 7 10
15 0 8 6 15 13 15 7 0 19 9 27 20 8 11 25 20 37 20 22 0 23 -3 23 -101 0 -105
5 -120 48 -133 12 -4 22 -12 22 -17 0 -5 16 -9 35 -9 19 0 35 -4 35 -10 0 -5
25 -10 55 -10 37 0 55 4 55 13 0 8 4 7 10 -3 6 -10 10 -11 10 -2 0 7 14 12 35
12 19 0 35 5 35 10 0 6 11 10 24 10 14 0 31 7 40 15 8 8 17 15 21 15 15 0 35
31 35 54 0 14 5 26 10 26 13 0 13 127 1 132 -5 2 -11 10 -13 18 -3 17 -23 40
-34 40 -3 0 -14 9 -23 19 -10 11 -34 21 -57 24 -21 2 7 4 63 5 79 2 105 -1
117 -13 8 -8 18 -15 23 -15 5 0 15 -9 23 -20 8 -11 18 -20 23 -20 5 0 15 -6
23 -14 16 -16 19 -96 4 -96 -5 0 -10 -11 -10 -24 0 -14 5 -28 10 -31 6 -3 10
1 10 10 0 24 20 41 58 48 37 8 62 28 62 51 0 9 5 16 10 16 6 0 10 9 10 20 0
11 7 20 15 20 8 0 15 5 15 10 0 6 9 10 21 10 25 0 60 31 41 38 -6 2 -12 10
-12 18 0 18 37 18 56 0z m-2096 -146 c0 -5 5 -10 11 -10 23 0 39 -30 39 -75 0
-43 -16 -75 -37 -75 -5 0 -15 -9 -23 -20 -8 -12 -31 -23 -52 -27 -21 -3 -38
-9 -38 -14 0 -5 -9 -9 -20 -9 -11 0 -20 7 -20 15 0 8 9 15 20 15 11 0 20 5 20
10 0 6 7 10 15 10 10 0 15 10 15 30 0 17 5 30 10 30 6 0 10 9 10 20 0 11 7 20
15 20 10 0 15 11 15 35 0 25 -4 35 -16 35 -8 0 -12 5 -9 10 3 6 15 10 26 10
10 0 19 -4 19 -10z m1600 -55 c0 -16 6 -25 15 -25 8 0 15 -4 15 -9 0 -5 -7
-11 -15 -15 -8 -3 -15 -12 -15 -21 0 -9 -9 -15 -25 -15 -14 0 -25 -4 -25 -10
0 -5 -16 -10 -35 -10 -19 0 -35 5 -35 10 0 6 9 10 21 10 24 0 49 22 49 44 0 9
7 16 15 16 8 0 15 5 15 10 0 6 -8 10 -17 10 -15 0 -14 2 3 15 27 20 34 19 34
-10z m-1870 -1775 c0 -5 -4 -10 -10 -10 -5 0 -10 -13 -10 -30 0 -16 -4 -30
-10 -30 -6 0 -10 -35 -10 -85 0 -50 4 -85 10 -85 6 0 10 -9 10 -20 0 -11 5
-20 10 -20 6 0 10 -7 10 -15 0 -8 7 -15 15 -15 8 0 15 -9 15 -20 0 -11 5 -20
10 -20 6 0 10 -9 10 -20 0 -11 6 -20 13 -20 7 0 19 -9 27 -20 8 -11 20 -20 27
-20 7 0 13 -6 13 -13 0 -7 9 -19 20 -27 11 -8 20 -22 20 -32 0 -10 5 -18 11
-18 16 0 39 -26 39 -44 0 -9 5 -16 11 -16 14 0 39 -25 39 -39 0 -6 6 -11 13
-11 7 0 19 -9 27 -20 8 -11 24 -20 35 -20 11 0 27 -9 35 -20 8 -11 19 -20 25
-20 6 0 17 -9 25 -20 8 -11 18 -20 22 -20 17 0 69 -58 58 -65 -5 -3 -17 1 -26
9 -8 9 -26 16 -40 16 -13 0 -24 5 -24 10 0 6 -7 10 -15 10 -8 0 -15 5 -15 10
0 6 -9 10 -21 10 -12 0 -34 14 -49 30 -15 17 -32 30 -37 30 -5 0 -15 9 -23 20
-8 11 -20 20 -27 20 -7 0 -13 5 -13 10 0 19 -65 11 -80 -10 -8 -11 -20 -20
-27 -20 -7 0 -13 -9 -13 -20 0 -11 -4 -20 -10 -20 -5 0 -10 -9 -10 -20 0 -11
-7 -20 -15 -20 -9 0 -15 -9 -15 -25 0 -14 -4 -25 -10 -25 -5 0 -10 -9 -10 -20
0 -11 -7 -20 -15 -20 -10 0 -15 -10 -15 -31 0 -17 -4 -28 -10 -24 -6 4 -10 -5
-10 -19 0 -14 -4 -26 -10 -26 -5 0 -10 -7 -10 -15 0 -8 -7 -15 -15 -15 -8 0
-15 -9 -15 -20 0 -11 -4 -20 -10 -20 -5 0 -10 -9 -10 -20 0 -11 -7 -20 -15
-20 -8 0 -15 -9 -15 -20 0 -11 -4 -20 -10 -20 -5 0 -10 -9 -10 -20 0 -11 -4
-20 -10 -20 -5 0 -10 -7 -10 -15 0 -8 -6 -15 -13 -15 -7 0 -19 -9 -27 -20 -8
-11 -25 -20 -37 -20 l-23 0 0 445 c0 290 3 445 10 445 6 0 10 28 10 65 0 51 3
65 15 65 8 0 15 9 15 20 0 11 5 20 10 20 6 0 10 7 10 15 0 8 7 15 15 15 8 0
15 7 15 15 0 18 43 65 60 65 5 0 10 5 10 10 0 6 11 10 25 10 14 0 25 5 25 10
0 6 9 10 20 10 11 0 20 -4 20 -10z m-45 -1070 c-2 -13 2 -20 11 -20 8 0 14 -4
14 -10 0 -6 27 -10 60 -10 52 0 60 -2 60 -19 0 -14 10 -21 35 -25 19 -4 35
-11 35 -16 0 -6 6 -10 13 -10 7 0 19 -9 27 -20 8 -11 20 -20 27 -20 7 0 13 -4
13 -10 0 -5 11 -10 25 -10 14 0 25 -4 25 -10 0 -5 -6 -10 -13 -10 -7 0 -19 -9
-27 -20 -8 -11 -18 -20 -23 -20 -5 0 -15 -7 -23 -15 -9 -8 -25 -15 -38 -15
-12 0 -28 -9 -36 -20 -8 -11 -18 -20 -23 -20 -14 0 -37 -28 -37 -45 0 -9 -4
-14 -9 -11 -5 3 -17 -6 -27 -19 -10 -14 -24 -25 -31 -25 -7 0 -13 -7 -13 -15
0 -8 -4 -15 -10 -15 -5 0 -10 -9 -10 -20 0 -11 -4 -20 -10 -20 -6 0 -10 -32
-10 -75 0 -43 4 -75 10 -75 6 0 10 -9 10 -20 0 -11 5 -20 10 -20 6 0 10 -9 10
-20 0 -11 7 -20 15 -20 8 0 15 -9 15 -20 0 -11 5 -20 10 -20 6 0 10 -7 10 -15
0 -8 6 -15 13 -15 13 0 37 -44 37 -68 0 -7 4 -11 8 -8 11 7 42 -30 42 -49 0
-8 5 -15 10 -15 6 0 10 -7 10 -15 0 -8 7 -15 15 -15 8 0 15 -9 15 -20 0 -11 5
-20 10 -20 6 0 10 -9 10 -20 0 -11 7 -20 15 -20 8 0 15 -9 15 -20 0 -11 5 -20
10 -20 6 0 10 -9 10 -20 0 -11 7 -20 15 -20 8 0 15 -6 15 -13 0 -7 9 -19 20
-27 11 -8 20 -22 20 -32 0 -10 6 -18 13 -18 7 0 19 -9 27 -20 8 -11 18 -20 23
-20 11 0 37 -26 37 -38 0 -6 7 -13 16 -16 24 -9 54 -7 54 4 0 6 6 10 13 10 7
0 19 9 27 20 8 11 18 20 23 20 14 0 37 27 37 44 0 9 4 16 9 16 5 0 13 9 16 20
3 11 11 20 16 20 6 0 7 -4 4 -10 -3 -5 1 -10 9 -10 12 0 16 -11 16 -50 0 -38
4 -50 15 -50 11 0 15 -11 15 -39 0 -22 5 -43 10 -46 6 -3 10 -40 10 -81 0 -59
3 -74 15 -74 12 0 15 -17 15 -90 0 -53 4 -90 10 -90 6 0 10 -37 10 -90 0 -53
4 -90 10 -90 6 0 10 -9 10 -20 0 -11 7 -20 15 -20 11 0 15 -11 15 -38 0 -32 5
-41 25 -50 l25 -12 0 -240 c0 -205 -2 -241 -15 -246 -10 -4 -15 -20 -15 -50 0
-32 4 -44 15 -44 13 0 15 -26 15 -170 0 -107 4 -170 10 -170 6 0 10 -32 10
-75 0 -43 -4 -75 -10 -75 -5 0 -10 5 -10 10 0 6 -7 10 -15 10 -8 0 -15 4 -15
9 0 5 -31 12 -70 16 -38 4 -70 11 -70 15 0 4 -12 8 -27 8 -15 0 -29 5 -31 11
-2 6 -10 11 -19 11 -18 0 -43 24 -43 42 0 8 -16 20 -35 28 -24 9 -31 16 -23
22 10 6 10 8 0 8 -14 0 -42 24 -42 35 0 8 -27 35 -35 35 -15 0 -35 28 -35 50
0 6 -7 10 -15 10 -9 0 -15 9 -15 25 0 15 -11 36 -25 49 -14 13 -25 31 -25 40
0 9 -4 16 -10 16 -5 0 -10 9 -10 20 0 11 -4 20 -10 20 -5 0 -10 9 -10 20 0 11
-7 20 -15 20 -13 0 -20 18 -16 43 0 4 -3 7 -9 7 -5 0 -10 9 -10 20 0 11 -7 20
-15 20 -10 0 -15 10 -15 30 0 17 -4 30 -10 30 -5 0 -10 14 -10 30 0 18 -6 33
-15 36 -8 4 -15 15 -15 25 0 10 -4 19 -10 19 -5 0 -10 15 -10 33 0 24 -3 28
-10 17 -7 -11 -10 -5 -10 23 0 26 -4 37 -15 37 -9 0 -15 10 -15 26 0 26 -20
54 -39 54 -10 0 -12 5 -11 25 1 10 -28 35 -39 35 -6 0 -11 7 -11 15 0 8 7 15
15 15 8 0 15 5 15 11 0 7 -11 9 -27 5 -16 -3 -22 -3 -15 0 20 9 14 34 -10 34
-21 0 -21 0 -2 16 16 13 16 15 2 10 -12 -3 -18 0 -18 9 0 8 5 15 10 15 14 0
13 27 -2 36 -7 4 -8 3 -4 -4 4 -7 1 -12 -9 -12 -9 0 -13 -4 -10 -10 3 -5 1
-10 -4 -10 -6 0 -11 20 -11 45 0 26 -5 45 -11 45 -7 0 -10 23 -9 63 3 88 2 97
-15 97 -12 0 -15 13 -15 55 0 30 -4 55 -10 55 -6 0 -10 37 -10 90 0 50 4 90 8
90 4 0 9 14 10 31 2 19 -2 28 -8 24 -5 -3 -10 -1 -10 4 0 6 6 11 13 11 8 0 7
4 -3 10 -10 6 -11 10 -2 10 13 0 17 41 4 55 -17 20 -32 94 -32 159 0 52 -3 66
-15 66 -12 0 -15 19 -16 103 -1 56 -1 105 0 110 0 4 -3 7 -9 7 -6 0 -10 52
-10 135 0 113 -2 135 -15 135 -13 0 -15 24 -15 160 0 106 4 160 11 160 5 0 7
5 4 10 -3 6 3 10 14 10 12 0 21 5 21 10 0 6 11 10 25 10 22 0 30 9 26 33 0 4
9 7 22 7 18 0 19 -2 7 -10 -13 -8 -12 -10 3 -10 12 0 17 9 18 33 1 17 1 35 0
39 -1 7 39 58 45 58 2 0 1 -9 -1 -20z m665 -100 c-19 -13 -30 -13 -30 0 0 6
10 10 23 10 18 0 19 -2 7 -10z m433 -23 c8 -21 -4 -67 -17 -67 -6 0 -18 9 -26
20 -8 11 -20 20 -27 20 -7 0 -13 9 -13 20 0 17 7 20 39 20 23 0 41 -5 44 -13z
m2831 -72 c-4 -8 -11 -12 -16 -9 -6 4 -5 10 3 15 19 12 19 11 13 -6z m58 -447
c-9 -9 -12 -7 -12 12 0 19 3 21 12 12 9 -9 9 -15 0 -24z m14 -44 c-3 -9 -6
-18 -6 -20 0 -3 -4 -3 -10 1 -11 7 -2 35 12 35 6 0 7 -7 4 -16z m-5746 -1455
c0 -10 7 -19 15 -19 8 0 15 -7 15 -16 0 -8 5 -12 10 -9 6 4 10 -5 10 -19 0
-14 5 -26 10 -26 6 0 10 -9 10 -20 0 -11 7 -20 15 -20 8 0 15 -9 15 -20 0 -11
5 -20 10 -20 6 0 10 -11 10 -25 0 -16 6 -25 15 -25 10 0 15 -10 15 -31 0 -17
4 -28 10 -24 6 4 10 -5 10 -19 0 -14 5 -26 10 -26 6 0 10 -11 10 -25 0 -16 6
-25 15 -25 8 0 15 -9 15 -20 0 -11 5 -20 10 -20 6 0 10 -13 10 -30 0 -20 5
-30 15 -30 10 0 15 -10 15 -30 0 -16 5 -30 10 -30 6 0 10 -11 10 -25 0 -16 6
-25 15 -25 13 0 15 -24 15 -153 0 -137 3 -161 25 -227 l25 -74 0 -682 c0 -593
-2 -685 -15 -698 -8 -8 -15 -20 -15 -26 0 -6 -4 -8 -10 -5 -5 3 -10 -1 -10 -9
0 -9 -6 -16 -13 -16 -7 0 -19 -9 -27 -20 -8 -11 -20 -20 -27 -20 -7 0 -13 -7
-13 -16 0 -18 -23 -44 -39 -44 -6 0 -11 -9 -11 -19 0 -11 -9 -23 -20 -26 -19
-6 -25 -17 -21 -39 1 -5 -5 -4 -13 4 -13 10 -16 10 -16 -4 0 -19 -23 -46 -39
-46 -6 0 -11 -8 -11 -18 0 -10 -9 -24 -20 -32 -11 -8 -20 -20 -20 -27 0 -7 -7
-13 -15 -13 -14 0 -19 -12 -16 -32 0 -5 -3 -8 -9 -8 -5 0 -10 -13 -10 -30 0
-16 -5 -30 -11 -30 -6 0 -35 -25 -64 -55 -29 -30 -57 -55 -62 -55 -4 0 -15 -9
-23 -20 -8 -11 -19 -20 -25 -20 -6 0 -17 -9 -25 -20 -8 -11 -18 -20 -23 -20
-5 0 -22 -13 -37 -30 -15 -16 -33 -30 -39 -30 -6 0 -11 -5 -11 -11 0 -12 -25
-39 -37 -39 -5 0 -15 -9 -23 -20 -8 -11 -18 -20 -23 -20 -13 0 -57 -48 -57
-63 0 -8 -11 -18 -25 -21 -14 -4 -25 -11 -25 -16 0 -6 -7 -10 -15 -10 -8 0
-15 -7 -15 -16 0 -15 -23 -44 -35 -44 -12 0 -55 -49 -55 -63 0 -8 -11 -18 -25
-21 -14 -4 -25 -11 -25 -16 0 -6 -7 -10 -15 -10 -8 0 -15 -6 -15 -12 0 -17
-44 -68 -59 -68 -6 0 -11 -7 -11 -16 0 -18 -23 -44 -39 -44 -6 0 -11 -7 -11
-15 0 -8 -4 -15 -10 -15 -5 0 -10 -13 -10 -30 0 -20 -5 -30 -15 -30 -8 0 -15
-7 -15 -16 0 -22 -25 -44 -49 -44 -19 0 -21 6 -21 60 0 33 -4 60 -10 60 -5 0
-10 11 -10 25 0 16 -6 25 -15 25 -8 0 -15 7 -15 16 0 15 -23 44 -35 44 -4 0
-20 14 -35 30 -15 17 -33 30 -39 30 -6 0 -11 4 -11 9 0 5 -10 13 -22 17 -28 9
-48 28 -48 48 0 9 -7 16 -15 16 -10 0 -15 10 -15 30 0 17 -4 30 -10 30 -5 0
-10 15 -10 34 0 19 -5 38 -10 41 -6 3 -10 26 -10 51 0 32 -4 44 -15 44 -12 0
-15 14 -15 65 0 37 -4 65 -10 65 -5 0 -10 18 -10 40 0 29 -4 40 -15 40 -9 0
-15 9 -15 25 0 14 -4 25 -10 25 -6 0 -10 48 -10 125 0 104 -2 125 -15 125 -11
0 -15 12 -15 50 0 38 4 50 15 50 8 0 15 7 15 15 0 8 -7 15 -15 15 -11 0 -15
11 -15 40 0 29 4 40 15 40 13 0 15 38 15 281 0 184 3 278 10 274 6 -4 10 8 10
29 0 25 4 36 15 36 10 0 15 10 15 30 0 17 5 30 10 30 6 0 10 11 10 25 0 16 6
25 15 25 8 0 15 9 15 20 0 11 5 20 10 20 6 0 10 9 10 20 0 11 5 20 10 20 6 0
10 9 10 20 0 11 7 20 15 20 8 0 15 9 15 20 0 11 5 20 10 20 6 0 10 7 10 15 0
8 7 15 15 15 8 0 15 9 15 20 0 11 5 20 10 20 6 0 10 9 10 20 0 11 6 20 13 20
8 0 7 4 -3 10 -13 8 -12 10 3 10 10 0 17 8 17 20 0 11 5 20 10 20 6 0 10 7 10
15 0 8 5 15 10 15 6 0 10 9 10 20 0 11 7 20 15 20 8 0 15 9 15 20 0 11 5 20
10 20 6 0 10 7 10 15 0 9 7 18 15 21 8 4 15 12 15 20 0 8 5 14 10 14 6 0 10 9
10 20 0 11 7 20 15 20 8 0 15 9 15 20 0 11 5 20 10 20 6 0 10 7 10 16 0 18 23
44 39 44 6 0 11 7 11 15 0 8 5 15 10 15 6 0 10 9 10 20 0 11 7 20 15 20 8 0
15 9 15 20 0 11 5 20 10 20 6 0 10 9 10 20 0 11 5 20 11 20 16 0 39 26 39 44
0 9 5 16 10 16 6 0 10 7 10 15 0 8 5 15 11 15 16 0 39 26 39 44 0 9 7 16 15
16 8 0 15 6 15 13 0 7 9 23 20 35 11 12 20 26 20 32 0 5 7 10 15 10 8 0 15 7
15 16 0 18 23 44 39 44 6 0 11 9 11 20 0 11 5 20 10 20 6 0 10 9 10 20 0 11 7
20 15 20 8 0 15 7 15 15 0 8 5 15 10 15 6 0 10 9 10 20 0 11 5 20 10 20 6 0
10 9 10 20 0 11 5 20 11 20 16 0 39 26 39 44 0 9 7 16 15 16 8 0 15 7 15 15 0
8 5 15 10 15 6 0 10 9 10 20 0 11 5 20 11 20 16 0 39 26 39 44 0 9 5 16 10 16
6 0 10 9 10 20 0 11 7 20 15 20 8 0 15 7 15 15 0 8 5 15 10 15 6 0 10 9 10 20
0 11 7 20 15 20 8 0 15 9 15 20 0 11 5 20 10 20 6 0 10 9 10 20 0 11 5 20 11
20 11 0 39 25 39 35 0 10 28 35 39 35 6 0 11 4 11 9 0 11 38 19 58 13 6 -2 12
-13 12 -23z m2464 -951 c-3 -4 4 -12 15 -17 16 -9 21 -7 26 10 6 17 9 19 16 8
5 -8 9 -10 9 -5 0 4 16 -8 36 -28 33 -33 41 -36 95 -36 l59 0 0 -146 c0 -112
-3 -145 -12 -142 -7 3 -14 19 -16 36 -2 18 -6 32 -10 33 -4 0 -15 2 -24 4 -12
2 -18 -3 -18 -17 0 -11 -7 -26 -16 -35 -10 -11 -13 -25 -8 -45 5 -23 3 -29 -7
-26 -8 3 -14 19 -14 38 0 28 -5 35 -25 41 -14 4 -19 7 -12 8 9 1 12 14 10 40
-1 22 -5 38 -10 35 -4 -3 -8 7 -8 22 0 22 -2 25 -15 14 -13 -11 -15 -7 -15 29
0 22 -4 41 -10 41 -5 0 -10 7 -10 16 0 8 -5 12 -11 9 -6 -4 -13 2 -16 14 -3
12 -9 21 -14 21 -5 0 -9 11 -9 25 0 16 -6 25 -15 25 -8 0 -15 9 -15 20 0 15 6
19 24 18 14 -1 23 -6 20 -10z m-44 -188 c0 -5 -5 -10 -11 -10 -5 0 -7 5 -4 10
3 6 8 10 11 10 2 0 4 -4 4 -10z m31 -42 c18 -16 19 -19 6 -15 -10 4 -23 7 -28
7 -5 0 -9 7 -9 15 0 20 2 19 31 -7z m19 -38 c0 -5 -4 -10 -10 -10 -5 0 -10 5
-10 10 0 6 5 10 10 10 6 0 10 -4 10 -10z m25 -30 c-3 -5 -10 -10 -16 -10 -5 0
-9 5 -9 10 0 6 7 10 16 10 8 0 12 -4 9 -10z m21 -47 c-11 -11 -19 6 -11 24 8
17 8 17 12 0 3 -10 2 -21 -1 -24z m44 -23 c11 -11 20 -24 20 -30 0 -5 9 -14
20 -20 11 -6 20 -17 20 -25 0 -8 5 -15 10 -15 6 0 9 -3 9 -7 -5 -28 3 -53 16
-53 8 0 15 -9 15 -20 0 -11 -5 -20 -11 -20 -16 0 -39 26 -39 44 0 9 -7 16 -15
16 -8 0 -15 9 -15 19 0 11 -4 21 -9 23 -5 2 -11 12 -13 23 -4 23 -22 45 -37
45 -6 0 -11 9 -11 20 0 11 5 20 10 20 6 0 19 -9 30 -20z m80 -50 c0 -5 -4 -10
-10 -10 -5 0 -10 5 -10 10 0 6 5 10 10 10 6 0 10 -4 10 -10z m90 -158 c-9 -3
-9 -7 1 -13 10 -6 10 -9 2 -9 -7 0 -10 -6 -7 -14 4 -11 0 -13 -15 -9 -12 3
-21 13 -21 23 0 10 -5 20 -11 22 -19 6 3 37 29 40 20 2 28 -2 30 -17 2 -10 -1
-21 -8 -23z m130 -681 c0 -17 -3 -18 -25 -8 -32 15 -32 27 0 27 18 0 25 -5 25
-19z m-82 -191 c7 -11 8 -20 4 -20 -5 0 -17 9 -27 20 -14 15 -15 20 -4 20 8 0
20 -9 27 -20z m32 10 c0 -5 -7 -10 -15 -10 -8 0 -15 5 -15 10 0 6 7 10 15 10
8 0 15 -4 15 -10z m2255 -810 c3 -5 -1 -10 -10 -10 -9 0 -13 5 -10 10 3 6 8
10 10 10 2 0 7 -4 10 -10z m46 -77 c-11 -5 -11 -7 0 -14 11 -7 10 -9 -3 -9
-10 0 -18 7 -18 15 0 8 8 15 18 14 12 0 13 -2 3 -6z m129 -195 c0 -4 -7 -8
-15 -8 -8 0 -15 4 -15 8 0 5 7 9 15 9 8 0 15 -4 15 -9z m70 -102 c0 -3 -4 -8
-10 -11 -5 -3 -10 -1 -10 4 0 6 5 11 10 11 6 0 10 -2 10 -4z m-7440 -801 c0
-16 -6 -25 -15 -25 -8 0 -15 -9 -15 -20 0 -11 -4 -20 -10 -20 -15 0 -12 77 3
83 26 11 37 6 37 -18z m7580 -285 c0 -5 7 -10 15 -10 9 0 15 -9 15 -25 0 -14
5 -25 10 -25 6 0 10 -13 10 -30 0 -20 5 -30 15 -30 11 0 15 -11 15 -40 0 -22
5 -40 10 -40 6 0 10 -16 10 -35 0 -24 5 -35 15 -35 11 0 15 -11 15 -40 0 -22
5 -40 10 -40 6 0 10 -16 10 -35 0 -33 -2 -35 -35 -35 -24 0 -35 5 -35 15 0 8
-7 15 -15 15 -11 0 -15 11 -15 40 0 22 -4 40 -10 40 -5 0 -10 23 -10 50 0 38
-4 50 -15 50 -10 0 -15 11 -15 35 0 19 -4 35 -10 35 -5 0 -10 23 -10 50 0 28
-4 50 -10 50 -5 0 -10 11 -10 25 0 18 5 25 20 25 11 0 20 -4 20 -10z m-7120
-50 c0 -4 -6 -12 -13 -18 -10 -8 -13 -5 -15 13 -1 18 2 23 13 19 8 -4 15 -10
15 -14z m3970 -1740 c0 -5 6 -10 13 -10 7 0 19 -9 27 -20 8 -11 20 -20 27 -20
7 0 13 -9 13 -20 0 -11 5 -20 10 -20 6 0 10 -16 10 -35 0 -19 5 -35 10 -35 6
0 10 -18 10 -40 0 -29 4 -40 15 -40 10 0 15 -10 15 -30 0 -16 5 -30 10 -30 6
0 10 -16 10 -35 0 -24 5 -35 15 -35 10 0 15 -10 15 -30 0 -16 5 -30 10 -30 6
0 10 -13 10 -30 l0 -30 -230 0 -230 0 0 249 0 249 120 1 c78 1 120 -2 120 -9z
m3597 -242 c-2 -13 -4 -3 -4 22 0 25 2 35 4 23 2 -13 2 -33 0 -45z"/>
<path d="M6518 16223 c-27 -2 -48 -8 -48 -14 0 -5 -22 -9 -50 -9 -27 0 -50 -4
-50 -10 0 -5 -18 -10 -41 -10 -24 0 -38 -4 -34 -10 4 -6 -9 -10 -32 -10 -27 0
-43 -6 -53 -20 -8 -11 -20 -20 -28 -20 -7 0 -10 -4 -7 -10 3 -5 -1 -10 -9 -10
-9 0 -16 -7 -16 -16 0 -8 -4 -12 -10 -9 -5 3 -10 1 -10 -4 0 -6 11 -11 24 -11
14 0 31 -7 40 -15 17 -18 182 -22 188 -5 2 6 50 15 108 20 144 13 190 21 190
31 0 5 75 9 166 9 91 0 163 -4 160 -8 -2 -4 10 -9 27 -10 18 -2 34 -7 35 -12
4 -10 52 -14 52 -4 0 8 -27 34 -37 34 -5 0 -13 10 -18 23 -6 12 -16 21 -23 20
-7 -2 -12 2 -12 7 0 6 -6 10 -13 10 -7 0 -19 9 -27 20 -8 11 -24 20 -36 20
-12 0 -24 5 -26 11 -4 11 -320 21 -410 12z"/>
<path d="M5450 15490 c0 -5 5 -10 11 -10 5 0 7 5 4 10 -3 6 -8 10 -11 10 -2 0
-4 -4 -4 -10z"/>
<path d="M4620 15390 c0 -5 6 -10 14 -10 8 0 16 -6 19 -12 2 -7 8 -10 12 -6 9
8 -18 38 -34 38 -6 0 -11 -4 -11 -10z"/>
<path d="M6943 15445 c-7 -8 -13 -21 -13 -30 0 -8 -5 -15 -11 -15 -14 0 -39
-25 -39 -39 0 -6 -9 -11 -21 -11 -24 0 -49 -22 -49 -44 0 -22 13 -20 30 4 8
11 20 20 27 20 7 0 13 4 13 10 0 5 11 12 25 16 16 4 25 13 25 25 0 10 5 19 10
19 6 0 10 9 10 20 0 11 7 20 15 20 8 0 15 5 15 10 0 15 -23 12 -37 -5z"/>
<path d="M4938 10653 c7 -3 16 -2 19 1 4 3 -2 6 -13 5 -11 0 -14 -3 -6 -6z"/>
<path d="M5715 9250 c3 -5 10 -10 16 -10 5 0 9 5 9 10 0 6 -7 10 -16 10 -8 0
-12 -4 -9 -10z"/>
<path d="M4070 17360 c0 -5 -7 -10 -17 -10 -9 0 -13 -3 -10 -7 4 -3 2 -12 -4
-20 -9 -10 -7 -13 10 -13 14 0 21 6 21 20 0 13 7 20 20 20 11 0 20 5 20 10 0
6 -9 10 -20 10 -11 0 -20 -4 -20 -10z"/>
<path d="M12955 17146 c-66 -21 -101 -43 -144 -92 -77 -88 -71 160 -69 -2834
l3 -2685 30 -53 c32 -59 66 -91 129 -125 l41 -22 1523 -3 1524 -2 -6 -28 c-7
-33 -106 -663 -106 -674 0 -4 -21 -19 -47 -34 -161 -93 -303 -211 -303 -252 0
-32 35 -53 107 -63 41 -6 579 -8 1358 -7 1427 3 1347 -1 1353 65 3 27 -4 40
-41 76 -46 47 -154 123 -249 177 -32 17 -61 36 -64 41 -6 10 -104 651 -104
681 0 17 84 18 1508 20 l1507 3 40 22 c54 29 110 87 137 142 l23 46 0 2700 0
2700 -23 42 c-35 66 -79 110 -140 140 l-57 28 -3945 2 c-3163 1 -3953 -1
-3985 -11z m3999 -122 c19 -18 21 -55 4 -72 -7 -7 -25 -12 -40 -12 -21 0 -31
6 -38 26 -20 53 36 97 74 58z m3876 -2359 l0 -2185 -3905 0 -3905 0 0 2185 0
2185 3905 0 3905 0 0 -2185z m-3816 -2774 c105 -59 128 -203 47 -295 -57 -65
-180 -75 -248 -20 -21 17 -46 46 -55 65 -22 42 -23 129 -4 168 20 38 80 89
114 97 15 3 32 7 37 9 20 5 81 -8 109 -24z"/>
<path d="M15260 15300 l0 -110 460 0 460 0 0 110 0 110 -460 0 -460 0 0 -110z"/>
<path d="M16510 15300 l0 -110 1110 0 1110 0 0 110 0 110 -1110 0 -1110 0 0
-110z"/>
<path d="M19080 15300 l0 -110 160 0 160 0 0 110 0 110 -160 0 -160 0 0 -110z"/>
<path d="M19730 15300 l0 -110 165 0 165 0 0 110 0 110 -165 0 -165 0 0 -110z"/>
<path d="M14090 14800 l0 -110 160 0 160 0 0 110 0 110 -160 0 -160 0 0 -110z"/>
<path d="M14740 14800 l0 -110 166 0 166 0 -4 110 -3 110 -162 0 -163 0 0
-110z"/>
<path d="M15390 14800 l0 -110 1110 0 1110 0 0 110 0 110 -1110 0 -1110 0 0
-110z"/>
<path d="M17920 14800 l0 -110 465 0 465 0 0 110 0 110 -465 0 -465 0 0 -110z"/>
<path d="M19180 14800 l0 -110 465 0 465 0 0 110 0 110 -465 0 -465 0 0 -110z"/>
<path d="M14090 14320 l0 -110 160 0 160 0 0 110 0 110 -160 0 -160 0 0 -110z"/>
<path d="M14740 14320 l0 -110 465 0 465 0 0 110 0 110 -465 0 -465 0 0 -110z"/>
<path d="M16000 14320 l0 -110 460 0 460 0 0 110 0 110 -460 0 -460 0 0 -110z"/>
<path d="M17240 14320 l0 -110 1105 0 1105 0 0 110 0 110 -1105 0 -1105 0 0
-110z"/>
<path d="M19780 14320 l0 -110 165 0 165 0 0 110 0 110 -165 0 -165 0 0 -110z"/>
<path d="M14090 13855 l0 -115 460 0 460 0 0 115 0 115 -460 0 -460 0 0 -115z"/>
<path d="M15347 13963 c-4 -3 -7 -55 -7 -115 l0 -108 1110 0 1110 0 0 115 0
115 -1103 0 c-607 0 -1107 -3 -1110 -7z"/>
<path d="M17910 13855 l0 -115 160 0 160 0 0 115 0 115 -160 0 -160 0 0 -115z"/>
<path d="M18560 13855 l0 -115 163 2 162 3 0 110 0 110 -162 3 -163 2 0 -115z"/>
<path d="M3820 15671 c0 -12 7 -21 15 -21 8 0 15 -9 15 -20 0 -11 5 -20 10
-20 6 0 10 -11 10 -25 0 -14 -5 -25 -11 -25 -5 0 -7 5 -3 11 4 8 0 8 -15 0
-18 -10 -21 -21 -21 -81 0 -56 3 -70 15 -70 10 0 15 -10 15 -31 0 -17 7 -37
15 -46 8 -8 13 -19 10 -24 -4 -5 1 -9 9 -9 12 0 16 -10 16 -40 0 -22 5 -40 10
-40 6 0 10 -11 10 -25 0 -16 6 -25 15 -25 8 0 15 -3 15 -8 0 -4 15 -13 33 -21
17 -8 35 -19 38 -24 8 -11 49 22 49 39 0 7 -17 16 -37 21 -29 7 -39 14 -41 33
-2 13 -12 31 -21 40 -10 8 -20 23 -24 34 -4 10 -13 16 -21 13 -9 -4 -12 2 -8
19 2 14 0 24 -7 24 -6 0 -11 16 -11 35 0 20 -6 38 -13 41 -7 2 -14 23 -16 46
-1 23 -4 46 -7 50 -3 5 16 8 43 6 36 -2 47 -7 45 -18 -3 -12 -1 -13 9 -2 10 9
10 15 1 24 -7 7 -12 20 -12 30 0 16 -16 23 -37 16 -5 -2 -10 22 -13 52 l-5 55
-37 3 c-33 3 -38 0 -38 -17z"/>
<path d="M7623 15575 c-18 -20 -16 -25 7 -25 17 0 20 -7 20 -45 0 -33 4 -45
15 -45 8 0 15 -4 15 -10 0 -5 5 -10 10 -10 6 0 10 18 10 40 0 29 4 40 15 40 8
0 15 7 15 15 0 8 -7 15 -15 15 -8 0 -15 5 -15 10 0 6 -11 10 -25 10 -14 0 -25
5 -25 10 0 14 -13 12 -27 -5z"/>
<path d="M7560 15510 c0 -5 5 -10 10 -10 6 0 10 5 10 10 0 6 -4 10 -10 10 -5
0 -10 -4 -10 -10z"/>
<path d="M7514 15472 c4 -7 1 -12 -7 -12 -18 0 -27 -21 -27 -66 0 -19 -4 -34
-10 -34 -5 0 -10 -11 -10 -25 0 -14 -4 -25 -10 -25 -5 0 -10 -11 -10 -24 0
-13 -7 -26 -15 -30 -10 -4 -15 -20 -15 -51 0 -33 4 -45 15 -45 10 0 15 -10 15
-30 0 -23 4 -30 20 -30 11 0 20 5 20 10 0 6 11 10 25 10 14 0 25 5 25 10 0 6
5 10 11 10 14 0 39 25 39 39 0 6 7 11 15 11 8 0 15 9 15 20 0 11 5 20 10 20 6
0 10 14 10 30 0 17 5 30 10 30 6 0 10 16 10 35 0 22 5 35 13 35 7 0 13 9 14
20 1 11 -2 18 -8 15 -5 -4 -12 1 -15 9 -10 26 -24 18 -24 -14 0 -16 -4 -30
-10 -30 -5 0 -10 -10 -10 -23 0 -25 -41 -58 -48 -38 -2 6 -10 11 -18 11 -11 0
-14 18 -14 79 0 50 -4 83 -12 87 -7 4 -8 3 -4 -4z"/>
<path d="M5960 14900 c0 -5 -7 -10 -15 -10 -8 0 -15 -4 -15 -8 0 -4 -10 -8
-22 -9 -11 -1 -24 -6 -27 -11 -8 -11 -141 -16 -141 -5 0 12 -94 33 -98 22 -5
-12 -49 -12 -54 0 -3 8 -55 14 -100 12 -22 -1 -24 -21 -3 -21 8 0 15 -4 15 -8
0 -5 51 -12 112 -16 62 -4 117 -11 122 -16 6 -6 31 -10 57 -10 26 0 51 -5 55
-12 5 -8 10 -4 15 9 6 18 20 23 75 29 77 8 105 25 80 49 -16 17 -56 20 -56 5z"/>
<path d="M5047 14604 c-7 -7 38 -54 53 -54 5 0 10 -4 10 -10 0 -5 11 -10 25
-10 14 0 25 -4 25 -10 0 -5 11 -10 25 -10 14 0 25 -4 25 -9 0 -5 15 -12 33
-15 18 -3 39 -15 47 -26 8 -11 19 -20 24 -20 5 0 16 -8 25 -17 23 -25 57 -43
82 -43 25 0 60 -31 41 -38 -21 -7 -13 -22 12 -22 14 0 31 -7 40 -15 9 -9 33
-15 60 -15 25 0 46 -4 46 -10 0 -6 50 -10 130 -10 80 0 130 4 130 10 0 6 18
10 40 10 22 0 40 5 40 10 0 6 11 10 25 10 16 0 25 6 25 15 0 8 9 15 20 15 11
0 20 5 20 10 0 6 5 10 10 10 6 0 21 10 34 23 44 42 66 57 84 57 10 0 24 9 32
20 8 12 31 23 53 27 20 3 40 10 43 14 3 5 14 9 25 9 13 0 18 4 13 12 -5 8 -2
9 9 5 10 -4 17 -1 17 6 0 7 11 21 25 31 38 28 32 46 -15 46 -22 0 -40 -4 -40
-10 0 -5 -9 -10 -20 -10 -11 0 -20 -4 -20 -10 0 -6 -35 -10 -85 -10 -50 0 -85
4 -85 10 0 6 -32 10 -75 10 -43 0 -75 4 -75 10 0 6 -87 10 -240 10 -135 0
-240 -4 -240 -9 0 -5 -21 -12 -47 -16 -79 -11 -285 -17 -280 -8 5 8 -8 12 -50
15 -7 1 -13 5 -13 10 0 9 -54 11 -63 2z m573 -104 c0 -6 55 -10 144 -10 86 0
147 4 151 10 9 14 202 13 211 -2 4 -6 3 -8 -4 -4 -6 3 -13 3 -16 -2 -2 -4 -19
-9 -38 -10 -18 -2 -34 -7 -36 -12 -2 -6 -19 -10 -38 -10 -19 0 -34 -4 -34 -10
0 -5 -18 -10 -40 -10 -22 0 -40 -4 -40 -10 0 -6 -55 -10 -145 -10 -90 0 -145
4 -145 10 0 6 -35 10 -85 10 -50 0 -85 4 -85 10 0 6 -12 10 -26 10 -14 0 -23
4 -19 10 4 6 -5 10 -19 10 -16 0 -26 6 -26 15 0 13 23 15 145 15 90 0 145 -4
145 -10z m-53 -141 c2 -24 -12 -24 -39 0 l-20 20 29 -1 c21 -1 29 -6 30 -19z"/>
<path d="M5010 14040 c0 -11 7 -20 15 -20 8 0 15 -4 15 -10 0 -5 9 -10 20 -10
11 0 20 -4 20 -9 0 -5 17 -11 38 -14 21 -4 44 -15 52 -27 8 -11 23 -20 33 -20
10 0 15 -4 12 -10 -3 -5 3 -10 14 -10 12 0 21 -4 21 -10 0 -5 7 -10 15 -10 8
0 15 -4 15 -10 0 -5 11 -10 25 -10 14 0 25 -4 25 -10 0 -5 11 -10 25 -10 14 0
25 -4 25 -10 0 -5 9 -10 20 -10 11 0 20 -4 20 -9 0 -5 20 -12 45 -16 25 -3 60
-12 77 -20 27 -11 29 -14 12 -18 -14 -3 -12 -5 9 -6 15 0 27 -5 27 -11 0 -5 7
-10 15 -10 8 0 15 -4 15 -10 0 -5 16 -10 36 -10 21 0 33 -4 29 -10 -4 -6 9
-10 32 -11 37 -1 37 -2 8 -8 l-30 -7 40 -7 c92 -17 113 -19 119 -8 10 16 46
14 52 -3 7 -17 30 -11 58 16 11 10 25 18 32 18 7 0 14 12 16 28 2 20 8 26 22
24 15 -3 17 1 12 22 -5 22 -3 26 16 27 17 1 19 2 6 6 -22 5 -24 23 -3 23 8 0
15 5 15 10 0 6 -13 10 -29 10 -17 0 -33 -4 -36 -10 -3 -6 -52 -10 -111 -10
-63 0 -104 -4 -104 -10 0 -6 -26 -10 -59 -10 -33 0 -63 5 -66 10 -3 6 -44 10
-91 10 -49 0 -84 4 -84 10 0 6 -18 10 -40 10 -22 0 -40 5 -40 10 0 6 -9 10
-20 10 -25 0 -70 21 -70 33 0 5 -7 7 -15 3 -8 -3 -21 1 -29 9 -8 8 -22 15 -32
15 -9 0 -25 9 -35 21 -9 11 -20 20 -23 19 -15 -4 -66 13 -66 21 0 5 -9 9 -21
9 -12 0 -34 14 -49 30 -33 35 -50 38 -50 10z"/>
<path d="M6127 13074 c6 -15 23 -19 23 -5 0 5 -7 11 -14 14 -10 4 -13 1 -9 -9z"/>
<path d="M6100 13052 c0 -5 7 -9 15 -9 8 0 12 4 9 9 -3 4 -9 8 -15 8 -5 0 -9
-4 -9 -8z"/>
<path d="M2270 12379 c0 -5 5 -7 10 -4 6 3 10 8 10 11 0 2 -4 4 -10 4 -5 0
-10 -5 -10 -11z"/>
<path d="M17660 10170 c-171 -14 -308 -48 -421 -105 -53 -28 -60 -45 -35 -93
30 -57 104 -111 214 -156 67 -27 368 -104 511 -131 364 -67 657 -17 735 126
28 51 16 99 -40 159 -56 59 -104 81 -297 130 -238 61 -475 85 -667 70z m670
-190 c59 -32 -15 -64 -133 -58 -85 4 -122 23 -92 48 8 7 30 16 48 21 40 10
150 3 177 -11z"/>
<path d="M11445 10078 c-2 -7 -34 -92 -70 -189 -36 -99 -65 -192 -65 -212 l0
-37 2660 0 2660 0 0 53 c0 34 -18 109 -53 222 l-53 170 -2537 3 c-2025 2
-2538 0 -2542 -10z"/>
<path d="M6350 9600 c0 -5 5 -10 11 -10 5 0 7 5 4 10 -3 6 -8 10 -11 10 -2 0
-4 -4 -4 -10z"/>
<path d="M6324 9560 c-6 -25 -7 -50 -2 -56 4 -6 4 -15 0 -19 -4 -5 -1 -5 6 -1
6 4 12 14 12 22 0 8 8 14 18 14 14 0 15 2 2 10 -11 7 -11 10 -2 10 7 0 10 5 7
10 -4 6 -10 8 -15 5 -5 -3 -10 7 -12 22 -3 24 -5 22 -14 -17z"/>
<path d="M19786 7691 c5 -5 98 -65 207 -135 l197 -126 459 0 459 0 169 118
c92 65 179 126 193 135 23 16 -21 17 -835 17 -500 0 -855 -4 -849 -9z"/>
<path d="M19810 6556 c19 -13 111 -71 204 -130 l168 -107 469 0 469 1 173 121
c94 67 176 125 181 130 6 5 -348 9 -844 9 l-855 0 35 -24z"/>
<path d="M3070 5985 c0 -9 6 -12 15 -9 9 4 15 0 15 -10 0 -9 5 -16 10 -16 16
0 11 37 -6 44 -25 9 -34 7 -34 -9z"/>
<path d="M19795 4986 c11 -7 102 -66 202 -130 l182 -116 470 0 470 0 173 121
c95 67 177 125 182 130 6 5 -340 9 -844 9 -726 0 -851 -2 -835 -14z"/>
<path d="M19795 3406 c11 -7 102 -66 203 -130 l183 -116 468 0 469 0 173 121
c96 67 178 126 183 130 6 5 -359 9 -844 9 -726 0 -851 -2 -835 -14z"/>
<path d="M8990 2960 c0 -11 5 -20 10 -20 6 0 10 9 10 20 0 11 -4 20 -10 20 -5
0 -10 -9 -10 -20z"/>
</g>
</svg>
